<svg xmlns="http://www.w3.org/2000/svg" width="1000" height="424" fill="#7c7c7c" stroke="#fff" stroke-linecap="round" stroke-linejoin="round" stroke-width="2" version="1.2">
    <path id="aydin" d="m79.7 308.9-.2.5-1-2.1.5-.2.2.3-.2.4.7 1.1zm74.9 6.2-6.9-.9-3.8-2.1-3.2-2.7-3.8-.8-2.8 1.9-1.9 3.7-2 1.6-6.3.5-3.7-.2-2.2-1.1h-2.4l-2.4.6-2.3-.4-3.7-2.5-4.2-.6-2-.8-1.9-1.2-1.7.1-1.6.9-.7 1.1-2.8 6.1-.6 1.1h-.9l-.8.5-.5.8-.2.9-.6.6-1.2-.1v.5l.7.5-.3.3-3.1.2-.7.3-.6.5-.7-.8h-.4l-.3.3-.2-.7-.6.1-.7-.3.5-.6.4-.6.1-.7-.2-.8 1.1-.4v-.5l-.5-1.2.3-3-.9.3-.3-.4h-.4l-.7.8.2-1.1.3-1 .1-1-.3-1 .2-.4-.4-.7.2-.7.8.5.5-1 .1-1.5-.1-.7-.8-.3-3-2-4.6-1.2-1.9-1.1.5-1.3.9-.3 3.5.3 1.1-.2 4.5-1.6.7-.5 1.2-1.5.4-1 .2-1.5v-2.3l-.9-1.2-.3-.7.1-1.3.8-.8.3-.8h3.6l4.2-1.7 6.3-4.2 2.7-.4 12.8 1 12.1-3.3 10.1-.1 1.8-.7 1.8-1.1 2.1-.6 2.1-.3 8.2-3 7.1.2.6 1.5.7 1.4 2.9 2 .6 2-.1 2.2.8 4-.4 1.4-1.2.9-.1 1.7 1.1 1.5.8 1.7 1.1 1.7 3.4.7.5 1.5-.2 1.8-1.6 1.2-2 .1-2.4 3.4-2.8 2.7-4-.5-3.7 1-1 2.5.6 2.5 1.1.6.4.9.3.9z"/>
    <path id="izmir" d="m37.1 251.6-.1.7h-.5l-.8.3-.2-1.3 1.6-.8.3.6-.3.5zm20.2-1.8-.6.4-.4-.4-.1-.3-1.2-.6-.3-.3v-2l.4-1.4-.1-.6.6.1.6.5.4.8.1 1.8.7.7.1.5-.2.8zm94.8 23.8-8.2 3-2.1.3-2.1.6-1.8 1.1-1.8.7-10.1.1-12.1 3.3-12.8-1-2.7.4-6.3 4.2-4.2 1.7h-3.6l.2-.8v-.6l-.2-.6.7-.7-.4-1.4-1.4-2.5-1.4.5h-1.9l-1.9-.3-1.2-.6-.8-1.2-1.4-.3-.3-.2-.2-1.3-.5-.4-1.5-.2-2.7-1.1-1.4-.1-1.6.3-1.5.6-.4 1-.4.2-.5-.3-1.1-2.4.2-.8v-1l-.3-1-.3-.9-.5-.9-1.2-1.1-.5-.7-.9.5-.2-.8.1-2-.7-.6h-.8l-.9.4-1 .2h-3.3l-.5.2-.7 4.3-.4-.4h-.3l.2 1v.8l-.3.7-.6.3-.4-.3-.6-1.7-.5-.8v1.4l-.5.1-.7-.5-1-1.1-.4-.6-.1-.6.2-1-1.4.4-1.3-1.1-1.3-1.4-1.3-.6.4 1.4h-.4l-.3-.4-1.1-1.2.2-1.3v-.6l-.2-.6h-.4l-.4 1.8-1.1.4-1.3-.4-1.7-1.5-.5-.3-2.7-.8-.1-.5.3-1 1.4.6.6-.9.5-1.2 1.1-.3v-.5l-1-.7-.1-1.2.4-.7.7.8.2-.9.5-.4.2.8v.7l-.1.6-.5.6.6.3 1.1.2.2.6.3.2.8.1.7-.2.4-.4-.5-.8v-.5l.9.6.9-.1.6-.3 2.5-1.7V255l-.4-1.4-.9-.8v-.5l1.3.7.7.7.4-.1.8-1.7-.7-.5-1.3-1.1-1.1-.4-.7-.7-.5-.1-.4.3-.5.9-.3.2h-1v-.3l.5-.7.3-1.3-.2-.8-1.3-1.9-.1-.8-.6-2-.1-.9-.6-2.5.2-1.9.2-.8.5-.3.8-.1 1.2-.6.5-.2 1.4.1 1.3.4 1.2.5.9.8 1.8 2 .8 1.2.3 1 1.2 1.9 1.3 1.8 1.1 1 .3.8.1.7v1.3l.3.7-.7.4-.5-.4-.5-.1-.6.2-.6.3.9.5v.6l-.5.8-.4.9 1.3.2.5.7.3 1 .6 1.1.9 3 .8 1.5 1.2-.4.2-.9-.3-.6-.8-.6-.4-2.7.3-1.2.6-1.1.8-.7.8.2.4-.4.6.7.6 1.2.9 2.7 1.1-.5.4.8.8-.1.9-.4.9-.3 4.2-.4 2.5-1.3 1.1-.3 1-.8.5.1 1 .3.6-.4h.4l1.4.7 1.2-.8 1.2-1.3 1.5-.8v-.5l-.5-.4-.6.4-.3-.5-1 .5-1.8-.2-.4.2-1.4-.6h-1.4l-3.2 1.4-1.1.5.3-.8-.9-.7-1.5-2.5-.8-.5-1.3-.4-.5-.3-1.1-.9.1-.4.9.7 1.4.9h.8v-.5l-.6-.7-.6-.7-.8-.5-.8-.4.2-.7.3-1.7.2-.8-.8-.7-.4.2-.6.5h-1.1l.4-.9-1.1-.4-.7-.1h-.7l.3-1.3h-.6l-.5-.3-1-.7.8-.7 1-.2-1-1.6-.4-.8-.4-1.2 1-.7 2.7-.6 1.5-1.1.7.6 1 .1 1.2.5.8.3.8-.1-.4-.9 1-.8.4-.1.4.5.2-1.1-.2-1.2-.3.5-1.1-1.9-.4-.4 2.1-1 .4 1.5.8.1.6-.8-.7-1.7.9-.3.8-.4.7-.6.5-.5 1 .7 1.2-.7.4-1.1-1.2-.3.9-1.8v-.7l-.9-.7-.9.8-.5.4-.6.1h-1l-.3-.2-.5-.9-.3-.2-.6.2-.5.3-.3.1-.5-.6-.6.5-1.8 1.1-.7.2-.5-.3-.8-1.2-.8-.3-1-.7-.5-1.6.1-1.6.8-1.2v-.4h-1.1l.7-.8 1.2-.9 1.3-.8 1-.3.5-.6-.4-1.3-1.2-2-1.5-1.9-.7-.5-1.6-.9 11.2-8.1 1-1.1.9-1.6 1-1.4 1.5-.9 1.6-.6 9.5-6.2 2.9.6 2.3 2.1 1.5 3 2 5.2 1.7 8.1.9 2.4 1.9 3.6-.4 3.6-1.4 1.6-3.4 2.9-3.3 1.3-2.9 2-.6 2.4-.3 2.6-.9 2.2-1.6 1.7-1.5 2.4-.2 1.4 1.4 1.5.8.3 1.2 1.6 1.4 4.6 3.1 2.6 3.7.4 5.8-.1 1.1.1 1.6 1.6.8 3.7 3.7 2.5 4 1.9.5 1 .6 2.1.4 1 2.2 2 2.6-.6 1.3-2.2.8-2.1 2.5.1 2.5 1.2h1.6l1.6-.5 2.1 2.4 1.4 3.3 5.1-.8 2-.6 1.4.2 1 1.2 1.8.6 1.2.1 2.4.6 1.4 1.9 2.2 6.8 2.3 3.5z"/>
    <path id="balikesir" d="m103.8 114.4.5.5.6.1v.6l-.6.1-.7-.4-.9-.2-.9-.1-.8-.5-.1-.8.6-.5.4-.9.4-.6 1.8.8.1.5-.3.6-.1.8zm29.9 4.6-.3.5-2.5 3.8-1.5 1.3-1.4 1.4.4 2.3 1.2.4 1 2.2-.5 1.2-.7 1.1-.7 2.6.3 1.4.9 2.5 1.9 3.1 2.9 2 .9 1.7 1 4.8.9 2.1 13.8 10.2 4.1.5 1.2-1.1 1.3-.7.8 1.2-.2 1.4.1 1.8 1 1.7.3.8.6.4 1 .1.7.5 1.3 2 2.1.3 2.4-.5 2.4.1 1.6.8 1.2 1.3-1 2-.3 1.3v1.3l-.4.9-.6.6-.7 1.9-.7 4.8-1.2 2-1.2 1.5-.4 1-1.6 2.9-1.7 1.2-3.8 1.3-2 1-.5 2.3.3.8.1 1.7-.3.7-4.6-.7-4.8 2.5-1.9.5-2 .2-2.2-.2-2.2.4-1.4 1.9-1.9 1.2-2.3.4-2.2 1-2.4-.9-2.6-6-4.3-4.7-.4-1-.8-.4-3.9 1.4-2.1-1 .6-2.3 1.6-2.8-1.3-2.2-.8.1-1.7.3-.8-.1-2.1-1.1-2.1-.1-3.7.5-3.7-1.1-2.2-1.8-2.4-1.2-4 2.1-1.5-3-2.3-2.1-2.9-.6-9.5 6.2-1.6.6-1.5.9-1 1.4-.9 1.6-1 1.1-11.2 8.1-.4-.2-1.1-.8-.7-.8.1-.7-.4-1.4-.3-1.3-.4-1-.9-.5-2.5.2-1.2-.1-1.1-.5.5-.5.3-1.4.4-.7.7-.2.5.3-.1.4-.9.2v.5l.6-.1.9.6v-.6l.3-.6 1.1-.6.9-1.4L61 187l-.7-.4.1-1.3-.1-.6 1.9-.1.7-.3.6-.5-.5-1 .8-.6 3-1 .2-.1.1-1 .7-2.5v-1.5l-.4-.9-.8-.5-1.5-.2-1.2.5-.9 1-1 .4-1.3-.9-7.4 1.3-.1-5.5 1.7-5.3 2.1-.4 4.7.6 2.2-.8 2-1.6 3.7-1.6 2.2-1.8h2.5l1.6.2 1.4-.8 3.9.7 3.8 1.3 2.2-.9 2.1-1.5 2.2-1 2.1-1.5 1.1-2.6.9-2.8.3-2.7-.9-.8-.9-1.4.5-1.2.4-.5.6-1.5.2-1.9.7-2.2.3-1.3-.2-.4-.9-.2-2.1-.8-1-2.1.6-.5.8-.3 3.6-3.8 2.5-1.5.6-3-.2-.7 1.3-.8.8-.2 1.5.3 1.3.6 1.2.3 1.2-.8 1.1.5 1.5.2 1.5-.4 1.2-1.8 2.8-1.5.8-1.2h-.9l-2.6-.9-.8.4h-.4l-.3-1.3-.7-.3-.3-.2-.6-.9-.1-1.2-.2-.5-.9-.1-.4-.2-1.7-1.7-.4-.6v-.5l.6-.2.5-.4.8-1 .6-.3.9.4.5-.8 1 1.2.5.3.3-.4.5-.2 8.6 1.4 2.4.8 1 1.2-.9 1.6-4.5 2.3-1.4 1.2.2 1.7 1.9.6 4.4-.4 4.4-1.7 5-.2zm-30.1-18.1 1.4.7.8-.3 1.5.3 1.3.7.3 1.2-1 .7-1.9.3-1 .4-1.8 1.5-1 .4-1.1-.5h-.6l-1-.5-.9-.7.2-1.5-.7-1.1.3-.7.7-.7.3.2.2.7 1.3-.7 1.3-.4h1.4z"/>
    <path id="canakkale" d="m20.6 156.8.8.2.3.3.9-.4.3.6-.1 2.4-.3 1-.9-.1-1.7-1.1-1.5-.8-.7-.5-.3-.8.4-.6 1-.2h1.8zm-4-21.2.5.2 1-.2.8-.7h.3v1.4l-1.2.7-1.1.4-3.5.5-2.3 1-4.7.8-1.1-.1-1.3-.5-.6-.3-.3-.4-2.1-.7v-.4l1.2-2 1.7-1.8 2.1-1.3 3.5-.7 4.5-1.7.7-.1.6.1 1.1 1.3.7.1v.5l-.2 1.4v.9l.2.5-.5 1.1zm83.9-10.9.2.7-.6 3-2.5 1.5-3.6 3.8-.8.3-.6.5 1 2.1 2.1.8.9.2.2.4-.3 1.3-.7 2.2-.2 1.9-.6 1.5-.4.5-.5 1.2.9 1.4.9.8-.3 2.7-.9 2.8-1.1 2.6-2.1 1.5-2.2 1-2.1 1.5-2.2.9-3.8-1.3-3.9-.7-1.4.8-1.6-.2h-2.5l-2.2 1.8-3.7 1.6-2 1.6-2.2.8-4.7-.6-2.1.4-1.7 5.3.1 5.5-10.9 2-1.2.5-.5.6h-.6l-2.3 1.3-.4.3h-.6l-2.7-.5-.6.1-.7.3-.5.1-.7 1.1-1-.6-4.1 1h-2.1l-2-1-.2-1.5 1.3-3.5.8-3.4 2-1.9.4-1.6.4-3.7-.2-.7-1-1.9-.2-.9v-.6l.5-.4.2-.4v-1.6l.2-1.8-.1-.6-.8-.2.3-.7.7-3.4-.3-1.8v-.6l.1-.6.5-.9.3-1.2 1.1-1.9.5-.5 2.7.9.9-.5 1.7-.8.6-.3 2.2-2.3.4-.7.2-.6v-.9l.3-.7-.1-.5.8-.1.5-.3.3-.8.2-1.3v-1.3l-.4-1 .4-1 .2-.4 1-.1.8-.1 1.3-.7 1.8-.4.9-.9 2.3-3.1.5-.3 1.2-.5.6-.5 5.6-6.9 1.1-.9 2.1-.1 4.5.4 1.8-.5.6.2 1.4.8 2.9.2 1.2-.2 1.4-1.2 1.3-1.6 1.6-1.3 2.4-.1 1.8.3 2 .1 1.2-.3 1.7-1.1h.8l.9.6.5 1 .8 2.1-.7.5-.6-.3-.5.3 2.3 2.5 2.9 1.9 3.1 1.4 3.7.9h1.4l.6-.1.5-.4zm-31.7-16.8-.7.1-2 .6-3 1.9-.8.8-.9.6-3.3.5-.9.6-1.7 1.4-.7.3-.6.5-.5 2-.5.8-1.7 1-.4.5-.1 1.1-.3 1.1-.8.9-2.8 2.7-.4.3-1.5.3-.7.6-1.1 1.1-.3.5-1.4 1.7-.9.8-1.2.7-1.2.6-1.1.2-.7.6.1 1.2.7 1.3.7.6-2.4 2.4-.8.6-2.1 1.2-1.6 1.5-.6.4-2.8.9-.5.1-.5-.4.1-.8.4-.8.3-.4.9-.6.6-1.5.4-1.4.2-.7 2.4-3.3.6-2.4-.2-1.9-1-1.5-1.6-1.2.6-.4.1-.5-.2-.3-.7-.2-.2-.3.5-.6.7-.6.3-.1.6-.6 2.7-1 1-.1.8-1.3 2.6-1.7 2.4-2.1 3.1-1.1 2.3-2 1.5-1 1.6-.7 1.4-.4 2.5.4.7-.4.7-.7 1.1-1.7.8-.9 1.2.6 1.6-.5 1.5-1.3.7-1.4-1.6-3.4-.4-.6h-.6l.4-4.3v-.2l7.6.7-.1 5.5 1.7 5.1z"/>
    <path id="edirne" d="m62.2 9.7 1.4 8.1 1.6 6.7.6 6.8-1.1 6.7-2.2 3.2-.8 5.1-2.5 5.3 1.6 3.1.6 1.3.4 9.7-.8 4.1-2.6 3.3-1.6 4.2-.9 4.8.3 5.6 2 4.4 1.4 4.5v.2l-.4 4.3-3.4.6-1.2.6-.7.2h-3.6l-1.4.5-4 2.3-1.5-1-.8-.3-.9-.1-.7.3-.8.5-.8.2-1.4-.7-.9.1-2.8.8h-9.6l-1.4-.2-.7-.5-.5-1-.3-1.3-.4-1 .3-1.1-.1-1.5-.5-1.5-.8-1.1.5-.2 2 .2 1.6-.8 1.2-1.4.4-1.8.8-1.3 2.8-2.4-.4-.8.1-.4.3-.6V86l1.1-.5h.3l.4-.4.3-.6.4-1.4h.3l.5.7.8.3.7-.2v-.4l-.5-.8.6-.6 1.5-.7.8-.6.5-.7-.7-.5-.5-.7-.2-.6.2-.5.4-.2.8-.1.4-.4.4-.8v-.8l-1.4-.7-.5-.7-.7-1.6-.1-1 .9-1.8-.4-.3-.8-.2v-.6l1-1.5-.6-1.2-.2-1.3.2-1.3.6-1.5-.8-1.2.5-.6 3.4-.3.8-.5 1.4-1.2 1.5-1 .6-.8.6-.1 2.6-2.9.6.7 1 .6 1.1.3.9-.1.7-.7.5-1.2.2-1.4v-1.5l-.2-1.4-.8-3.4-.3-2.6-.2-1.2-.6-1 .3-.7-.2-1.8.3-.8-.4-.9v-1l-1 1.5-.5-.6-2.4-1.2-2.9-2.2.4-.9.2-1-.8-.2-1-.4-2-.6-1.4-1.3-.9-.3-1.4.2-.5-.8-.4-1.4.2-1.5.8-1.7 2.1-1.9 5.4.2 2.5-.7.7-1 .4-1.3.2-1.2.2-1.3.2-1.1-.7-.6.1-.7.7-.6 1.5-1.7.8-.6 1-.1 4.9.8 1-.1.5-.4 1.1-1.1.6-.2.5.3 1 .8.6.2.9-.7z"/>
    <path id="kirklareli" d="m133.4 40.1-2.4 3.4h-.1l-9.1 1-9 1.1-5.7 1.4-5.1 1.5-2.4 3.7-1.9 3.9-3.1 2.3-3.3.9-2.9-1.9-2.3-3.1-2.9-2h-6.1l-8.5.7-7.8 1.7-1.6-3.1 2.5-5.3.8-5.1 2.2-3.2 1.1-6.7-.6-6.8-1.6-6.7-1.4-8.1 1.2-.9h.6l1 .2.5-.6.6-.2.9.1.5-.1.6-.7.9-1.6.7-.3 1-.7 1.2-2.1 1.2-.7h1l1 .3.8.5.8.7h1.8l1.2.3 1.6-2.1.7-.6 1.1-.1 1.8.4 1.7 1L88 3.9l2.2 3.4 1.2 1.4 1.2 1.1 3.9 2.2.7.6 1.3 1.8.7.5.8-.4-.7-.3.6-.5-.5-.4 1.1-.4.5-.4.5-.5.4.3.4-.4.2-.7 4-1h1.9l2.7 1.5.8.3.6-.1.7-.2.1-.4-.8-.5.1-.7.1-1 .1-.7h.8l1-.2.5.1 1.3.3 1.4.7.7.2 2.5-.3.8.3 1.9.4.7 3.3v.8l.6.6.2.6v.5l-.5.3-.5-.1-1-.5-.9.1-.7.4-.4.9-.1 1.7.3 1.9.7 1.3 1 1.1.8 1.2 1 3.2.6.9 1 .9.4.5.3.8.2.3v.7h-.6v.4l.4 1.1.7 1.3.8 1 1.5.9.8 1 1.1 1.9 1.3 1.2z"/>
    <path id="tekirdag" d="m131.9 72-.5-.2-2.5.9-.3.3h-.6l-2.8 1.2-.8.2-.9.4-.8.6-.6.6-1.1 1.9-.4.9.1.6-.9.2-4.2-.5-.8-.5-.8-.6-.8-.5-2.1-.6-1.9-.1L98 78.4l-1.6 1-1.1 2.3-1.3 5.5-1.2 2.1-4.9 4.8-2.2 4-4.7 3.5-1 1.4-.6.2-1.3.1-1.4 1-2.4-.1-1.1.2-.9.7-1.5 2.2-.6.4-1.4.2-1.7-5.1.1-5.5-7.6-.7-1.4-4.5-2-4.4-.3-5.6.9-4.8 1.6-4.2 2.6-3.3.8-4.1-.4-9.7-.6-1.3 7.8-1.7 8.5-.7h6.1l2.9 2 2.3 3.1 2.9 1.9 3.3-.9 3.1-2.3 1.9-3.9 2.4-3.7 5.1-1.5 5.7-1.4 9-1.1 9.1-1 1.4 4.9.6 4.6-1.6 5.7-.7 4.2.7 5.3.6 3.8z"/>
    <path id="bilecik" d="m259.7 123.7.7 3 3.2 5.7 2 2.4-5.4.3-4.2 3.4-.9 3.5-.7 3.5-1.7 3.2-2.7 1.9h-2.8l-2.7 1.2-.8 1.4-.9 1.3-1.6.9-1.3 1.1-.6 7-2.2 4-2.9 3.3-2 .5-3.9.5-4.1 1.2-2.2-.7-5.8-4.1-1.8-.8-2.1-1.3-.9-1.1-1.7-3.7-.3-2.8.9-5.8 2.9.6 2.6-1-.7-3.4-1.4-1.1-2.7-3.9-.1-3.4 1.5-6.9 5-5.3.9-1.9-.2-1.8-1.2-1.5-.2-2.2.6-1.6.6-1.9.2-2.2 1-1.9 1-1.1 1.1-.9 2.8-1.5 1.5 3.1 1.8 2.8 2.1 1.7 1.9 2.1 4.6 1.4 7.2-1.9 2.3-.2 1.9.6h2l1.6 1 1.3 1.9.9.8 3.9-.1 2.7.7z"/>
    <path id="bursa" d="m150.5 111.1-.6.3-.2-.5.4-1.9-.2-1.1.9-.3.5.3.1.3-.3.3-.6 2.6zm73.5-1.3-2.8 1.5-1.1.9-1 1.1-1 1.9-.2 2.2-.6 1.9-.6 1.6.2 2.2 1.2 1.5.2 1.8-.9 1.9-5 5.3-1.5 6.9.1 3.4 2.7 3.9 1.4 1.1.7 3.4-2.6 1-2.9-.6-1.6.2-1.5.7-1.7.3-1.6-.2-5.5-2.2-2.6 1.9-1.1 4-.6 1.6-1 1.1-1.5 5.4-2.4 1.8-1.1 3.1-.3 4.5-2.9 1.8-3.7.1-3.7-.5-2.3-.5-2-1.6-1.2-1.3-1.6-.8-2.4-.1-2.4.5-2.1-.3-1.3-2-.7-.5-1-.1-.6-.4-.3-.8-1-1.7-.1-1.8.2-1.4-.8-1.2-1.3.7-1.2 1.1-4.1-.5-13.8-10.2-.9-2.1-1-4.8-.9-1.7-2.9-2-1.9-3.1-.9-2.5-.3-1.4.7-2.6.7-1.1.5-1.2-1-2.2-1.2-.4-.4-2.3 1.4-1.4 1.5-1.3 2.5-3.8.3-.5 7.3-.3 2.7.4 4.5-.1-1 .3-.3.5-.2.6 2.2-.8h2.4l2.4.6 2.4 1.1.3-.4.7.4.5-.2.5-.5.4-.2 3-.5.8-.7.8-.4 1 .1 1.8.6 1.5.1 1.5.3.7.3 1.3.8.9.3.9.2 4-.1.9-.2.8-.6.4-.9.5-1.8.3-.8.7.3.9-.1.9-.3.8-.4-1-1.1-1.1-1.1-1.3-.8-1.1-.3h-2.9l-.4.3-1.2.9-.1-7.4 3.6.9 1.6-.2 8 3.5 3.3-.7 3.3-3.5 3.3.7 2.9.9 3.1-.2 9.6-3.6 3.6-.7 7.1 2.6.3 1.6.5 1.4z"/>
    <path id="istanbul" d="m181.3 88.1-.2 1.1-.7-.5v-1l.5-.9.8-.2-.1.9-.3.6zm38.6-20.9.1.6.5 2.1.2 2.2-1.5 3.5-2.8 1.6-3.4 1.3-3 2.1-.4 1.7-.9 1.6-1.9.2-1.5-1.3-1.6-3.4-2.5-2.1-2.7-.3-2.3 1.7-2.2 2.2-1.3.7-2.7 2.3-1.8 2.3-.7-.4-1.1.2-1-1-2.9-1.4-1.1-.9-1.1-1.4-1-.9-2.9-1.5.4-.5-.6-.3-.3-.7-.2-1-.4-.9 1-.5 1.1-1.2.8-1.4.7-2.7.6-1 .2-.8-1.1-.8 1.2-1.9 1.9-2.2 2.1-1.5 1.9.3.5-.7.8-.1 9.8 1.8 10.4 2.5 12.7 1.9zm-88 4.8-.6-3.8-.7-5.3.7-4.2 1.6-5.7-.6-4.6-1.4-4.9h.1l2.4-3.4 1.6 1.5 7.9 5 11.2 4.9 16.1 7.7 5.1 1.1.6.5.7-.1.3-.7.4-.1 1.2.2 1.3.5.8.7-.4 1.8-.7 1.3-.9 1.1-.9.6-.6.2.1.4.4.6.7 1 .3.3-.4.8-.2 1.4-.4 1.2-.5 1.1-.5.8-.4.4-1 .3-.4.3-.4.6-.1.4.3 1.2-.6.4-1.1-.1-.5-.4-.6.2-.6.7-.6.2-.9.6-2.1.5-.5.2-.8.7-.6.2-1.3-.1-.6-.2-.3-.4-.5-.5-1.3-.1-6.3.8-1.6-.6.5-2.2-.6-.7-.9-.3.4-1.6-.5-1.4-1.1-.9-1.3-.3.3 1 1.1 1.1.4 1.2.1.7-.2 1-.3 1-.7.6-1.5-.2-2.7-2.8-1.3-.7-1.7-.3-3.6-1.4-1.8-.3h-1.8l-.4-.1-.6-.7-.4-.1-2 .4-.9.1-.4-.3z"/>
    <path id="kocaeli" d="m249.5 65.8-.3 1.1-1.7 4.2.9 3.5 3.9.8.2 2.2-1.2 2.2-.3 2.3-.9.2-2.9.1-1.7-.9-2.1-.4-.9.6.4 1.5.7.2.6.4-3.4 3.7-2 10.3-2.2 4.2-3 2.1-3.4.8-1.6.9-1.7.7-3.7.3-7.1-2.6-3.6.7-9.6 3.6-3.1.2-2.9-.9.4-2.7V99l.5-.3 1.2-.6.5-1.1.4-.3 1.2-.3.5.1.9.4.7.8.4 1.3h.5l10.1-2.3 6-.3 1.9.8h1l.8-1.3-.5-1.6-2-.3-4.3.5-1.1.5h-.6l-.6-.3-1.1-1-.3-.2-.8-.1-1.9-.7-1-.1-12.4.5-1 .3-.8.7-.9.4-1-.5-.5-.5-.4-1.2-.6-.2.8-.5-.2-.7-.4-.5-.9-.6-.2.4-.5-.4-.5.4-.6.2-1.4.3v-.4l.5-.1.4-.3.1-.4.1-.7.5.3.5-.3-.6-.9-1-1.3-.5-.4 1.8-2.3 2.7-2.3 1.3-.7 2.2-2.2 2.3-1.7 2.7.3 2.5 2.1 1.6 3.4 1.5 1.3 1.9-.2.9-1.6.4-1.7 3-2.1 3.4-1.3 2.8-1.6 1.5-3.5-.2-2.2-.5-2.1-.1-.6 1.2.1 13.1.4 1.5-.2.8-.4 1.2-.8.7-.2.5-.4.7-1.4.4.4.6-.6.6-1.1.6-.3.7.6 2.1.4 1.8 1.4 3.1.7z"/>
    <path id="sakarya" d="m276.9 71.9-.1.7.3 2 .1 1.5-3 2.8-1.8 4.1.4 2.1.9 1.8.1 2.1-.7 2 .5 1.8 1.1 1.6-1.2 2.1-3.3 2.6.2 2.2.3 2.2-.6 2-3.4 1.6-3.6-.1-2.1 3.2-1.5 4.2-.8.5-.6.7.3 1.8 1.1 1.4 1.2 2.4-1 2.5-2.7-.7-3.9.1-.9-.8-1.3-1.9-1.6-1h-2l-1.9-.6-2.3.2-7.2 1.9-4.6-1.4-1.9-2.1-2.1-1.7-1.8-2.8-1.5-3.1-.5-1.4-.3-1.6 3.7-.3 1.7-.7 1.6-.9 3.4-.8 3-2.1 2.2-4.2 2-10.3 3.4-3.7-.6-.4-.7-.2-.4-1.5.9-.6 2.1.4 1.7.9 2.9-.1.9-.2.3-2.3 1.2-2.2-.2-2.2-3.9-.8-.9-3.5 1.7-4.2.3-1.1 14 3.4 1.8 1.6.8.5 4.4.8 6.4-.2z"/>
    <path id="bolu" d="m339.1 76.3 2.6.1 4.4 1-.2 1.9v1.9l1.2.8 1.5.3 2.4 1.5 6 3 2 3.6-.2 1.8-.2 2-.8 3.8-1.9.8-1.5 1.4-.2 3.7 2 5.5-.9 1.6-1.9 2.1-1.4 2.5-4.2 2.3-7.2-1.1-2.2.7-2.2 1.5-6.1 1.5-3.6 1.7-4.5 1-6.5-.1-2 .2-4.7 1.9-1.7-.2-1.6-.6-1.5-.2-1.2-.6-1.7-1.9-8.8 1-4.6-2.8-4.9-1.7-1.3 1.4-.5 2.6.2 4.1-1.6 3.5-4.3 2.5-3.2 4.3-3.4-.6-3.1-1.2-2-2.4-3.2-5.7-.7-3 1-2.5-1.2-2.4-1.1-1.4-.3-1.8.6-.7.8-.5 1.5-4.2 2.1-3.2 3.6.1 3.4-1.6.6-2-.3-2.2-.2-2.2 3.3-2.6 4.3 1.5 8.5-.2 5.9 2.5 5-.6 4-3 1.9-5.1.2-3.6 2.6-1.9 6.7-1.2 4.8-1.1 2.6-3 .9-6 3.8.3 3.2.9 11.2.3z"/>
    <path id="eskisehir" d="m272.1 136.6 2.2 2.8.6 4.1.3 1.4 1.2.4 2.1-.1 5-2.2 3 .3 1.3.9 1.4.5 1.5-1.1 1.4-1.2 4.8.6 1.3-.4 1.3-.2 2.2 2.3 1.5-.5 1.7.6 2-.5h3.8l1.9-.7 2.1 1.4 2.4-.3v2l.6 1.2.2 1.7.8 2.1 1.3 2 1.5.9 1.8.1.4 1 .7 1.1.7.5.1 1.8-2.2 2.4.4 3.4 2.6 7.2 2.6 2.3.7 1.4.2 2.1.8 1.2.6 1.4v2.1l-.3 2-.5 2.1.3 1.2.1 2.6 1.1 1.8 1.6 1.1.4 2-1 1.7-1.3 1.2-1.1.1-1.1.4-1 1.4-2.7 1.3-1.3.9-.2 2-.3 1.9-.8 1.1-4.1.7-3.1-.4-2-.5-4.1-.1-6.7.7-3.9-3-2.6-5.9-3.7-3.9-2.1.6-1.8 1.6-1.9 1.3-2 .5-3.8 2.9-3.8 1.7-2.2-2.6-2.6-1.2-1.9 1.4-3.3 3.3-3.5 2.3-1.8.9-2.4.4-2.4-1.3-.8-.7-.9-.5-1.2-1.5-.8-2.2-1.4-1.4-1.9-.4-.9-4.3-5.2-6.9-.7-5.2-1.4-4.1-5.7-5.5-2-3.3 2.9-3.3 2.2-4 .6-7 1.3-1.1 1.6-.9.9-1.3.8-1.4 2.7-1.2h2.8l2.7-1.9 1.7-3.2.7-3.5.9-3.5 4.2-3.4 5.4-.3 3.1 1.2 3.4.6z"/>
    <path id="kastamonu" d="m446.9 10.7.2 4-1.5 4.1L443 22l-.1 2.3 3.4 1.3h1.9l2.2.2 3.2.9 6.3.3 3.5 1 2.9 3.9-1.8 4.7-1.7 1.2-1.6 1.5-1 2.3-.5 2.7.4 1.3.5 1.4-.4 9.1-2.7.6-1.8 2.6-1.5 3.8-1.2 1.5-2.4 2.2-1.8 4.5-1.8 2.2-.6 1.4 1 2.6 1.1.4 1.7 1.9-1.2 3.4-7.4 3.1-4.6 1-2.1-.1-2.2-.5-1.7-1.2-1.7-1.6-3-1.1-2-3.3.6-2.1 1.4-1.5 1.6-2.2-.6-2.7-.8-.5-1.7.6-8.5 4.6-4 .7-5.5 3.3-2 .7-2.4-.8-2-2.3-4.7-3.1-6.7-.8-.7-.6-1.2-1.6-.5-.9-1.1-1.6-2.8-1.2-2.9-.5-1-7.4.5-2.4 2.3-3.2 2.8-2.7 5.1-1.1-1.5-3.4-1.5-6.2-3.7-2.8-3.9 1.3-3.1.5-1.8-2-.5-5 3.4-2.4-1.9-5.1-1.5-3.1-.5-4.2 1.5-.4.9-.5.6.3 3.6-1 1.9-.8 2.4-1.6 8.2-2.8 8.3-4.4 1.9-.1 3.8.7h5.6l1.1.2 2.7 1 11.1 1.1.9-.3 1.5.5 6.8-.5 11.1 1.5z"/>
    <path id="antalya" d="m213.5 403.5.2-.6.4-.5.7.2-1.3.9zm-12-2.1-.5.3-.7-.3.4-.4.8.4zm2.6 2.2.5-2 .6-.7.4-.3h.4l-.1 1 .4.2.1.4-.9.5-.1.3-.5.4-.8.2zm17.3-4-.3.6-.4-.1-1.4.3.2-.5 1-.6 1.8-.4-.9.7zm133.7-31.9 1.8 4.7 2.2 4.4 1.4 1.8 1.7 1.2 2.1 1.1 1 2.1-.5 3.8.3 7.2-.8 3.1-.9 1.6-.7 1.7-.2 1.7-.4 1.5-.8 1.3-.1.4-.2-.1-1.9-.2-1-.3-4-2.3-.5-.5-.4-.8-.9-.4-1.1-.3-.8-.5-2.4-3.3h-.5l-.2-.4-1-.6-.2-.4-.2-1.9-.2-.5-1.2-1.8-3.1-2.8-1-2.8-.6-.8-.7-1.3-.9-.3-.9-2-.6-1.1-.8-.4-3.2-3.3-.4-.2-1.6-.2-1-.8-2.1.1-1.1-.2-.4-.6-.6-.6-1.3-.4-1.5-.3-.9.2-.5-.5-2-.8-1-1.5-.7-.6-.6.1-1.1-.2-4-1.8-.8-.7-.8-.9-9.8-4.4-1.5-.3-.2-1.6-1.8-1.1-20.9-3.1-8.6.5-1.4-.4-1.1-.7-2.1-1.6-3 2-1.4 1.4-.8 2-.9 1.7v2l-.3 2.1.1 1.2.5 1v.4l-.7 1.1-.2.6-.1 1 .1 1.1.7 1.2.2.8.4-.4-.1 1.3-.7 2.3.1.8-1.8 1.5-.8 1-.6 2.3-1.1 1.8v.5l-.7 1.1.1 1.1.6.9.7.5-.4.9 1.4.5-.8.9-1.4 1.2-.6 1.4.7-.1.4.1-.5.5-.7.6-.7.6-.5 1.4-.7.9-1.5 1.3.1-2.8-.3-1.1-.6-.5-1.2.3-5.5-2.5-1.1-.1-4 .7-.4.5-.2 1-.1 1.3h-.3l-.4-1.2-.3 1.2v.5l-.8-.5v1l-1.9-.5-.8-.5-.1.5-3.5 1.9-.8-.1-.6.4-.6-.1-1.3-.3-.7.2-.7.7-.9.5-1.9.4-.4.9h-.5l-1.3.4v.4h1.1l-.7.7-.8.6-.8.4-.9.1v-.4l.2-.3.5-.6-.7.1-.4.4-.6-.7-.6-.2-.7.1-.6.3-.4.7-.5.4-.9 1.1-.2-1.3-1.8-.9-.5-1.3.7.3.3-.3-.1-.6-.4-.3-2.6.4v-.4l1-.5h.5l-.6-.5-4.2.1-1.4-.3-3.2-1.9-.6.6-.3-.6-.2-1.8-.3.5-.7-.5-.8.4-.6.8-.4.9-.4.2-.5-.4-.6-1-.3.4-3.2-3 1.4-.7 1-1.3.3-1.7V387l.5-.9.3-1.1 1.7-3.6 3.3-1.3 1.6.7 1.1-.6-.2-1.8.4-1.8 2.4-2.1 2.6-1.9.9-3.6-.7-4 5.7-13 1.5-.2 1.4-.8 1.2-1.8 1.5-1.4 2-3.8.8-4.9 2.9-3.9 9.3-4.9 3.2-.6 7.8-3.2 3.1.4 3.2 3.9 1.3.5 7.2-.3 4.7.5h4.1l1.9-.5 3.2-3.5 1-2.8 3.6-3.2 4.6 1.9 5.4-1.9 2.8-.4 2.5-1.8 2.6-.9 2.8.4 1.1 1.4 1.2 1.3 2.1 1.7 2.2.9h5.2l13.4 2.8 4.4 2.8 3.3 3.2 3.7 2.5 2.6 2.8 2.3 3.3 1.5 1.4 1.5 1.1 3.5 3.3 2 .8 1.7 1.1.2 2-1.3 1-.6 2 .8 1.8 2.2.8 2.4.2 1.7.4 1.1 1.6.8 4.3-.4 4.4z"/>
    <path id="afyonkarahisar" d="m315.6 207.7-.7 4.5-.5 1.7 1.6 1.6.9.6-.4 2.7-4 6.6-1.6 3.2-.8 3.5.1 1.4.2 1.3-.2 1.5-4.5 6-4 4.2-9.2 6-1.3-.4-1.2-.7-2.3-3.4-1-.8-1-.6-1.3-.2-1 .9-2.6 2.8-6.5 5.3-3.2 3.7-3.3 3.1-4 1.6h-1.1l-1.1.3-3 2.4-2 .5-1.9.8-2.5 2.9-2.8 2.5-2 1.2-4.7 4.6-3.5 2.1-1.1 2.1-.7 6.8-1.7 3.2-3.7 2-4.1.2-4.7-.3-4.2 1.5-2.3-4.1-.6-.5-.8-.2-1.4-.7-.7-.3h-2.4l-1.2-.5v-6.7l.8-1.9 1.7-.7 1.6-.8 14.1-10.6 1.4-1.7-.8-4.4-1.4-1.7-5.6-9.4-7.2-1.7-.1-1.8 1.2-1.5 1-2.8.7-2.6 3.2-3.1.8-2.5.3-2.8 10.8-6.5 1.5-1.9 2.1-3.6 1.4-4.5 1.4-2.8.8-3.1 1-2.7 6.2-2.8 3.6-5.6 1.9.4 1.4 1.4.8 2.2 1.2 1.5.9.5.8.7 2.4 1.3 2.4-.4 1.8-.9 3.5-2.3 3.3-3.3 1.9-1.4 2.6 1.2 2.2 2.6 3.8-1.7 3.8-2.9 2-.5 1.9-1.3 1.8-1.6 2.1-.6 3.7 3.9 2.6 5.9 3.9 3 6.7-.7 4.1.1 2 .5z"/>
    <path id="burdur" d="m275.8 321.5-3.6 3.2-1 2.8-3.2 3.5-1.9.5H262l-4.7-.5-7.2.3-1.3-.5-3.2-3.9-3.1-.4-7.8 3.2-3.2.6-9.3 4.9-2.9 3.9-.8 4.9-2 3.8-1.5 1.4-1.2 1.8-1.4.8-1.5.2-4.5-6.1-6.2.8-2.6 3.2-2-.8.9-3.8-1.2-3.3.4-3.6.9-3.4 1.4-3.1 5.1-7.7 2.3-4.6.2-.6-.2-.9-.3-.6-.4-.3-.7.1-.6-2.5.1-2.6-.5-1.8v-1.8l6.7-3.5.5-1.5.7-1.4 1.5-.9.8-.4 2.1-1.2 3.7-3.1 4.2-1.5 4.7.3.7 2.2 1 2 2 .7 1.9-.9 5.8-4.3 1.5-.8 1.4-1 2.4-2.5 2.6 1.9 2.3 3.3 2.1 2.1 2.2 1.8 3.7.6h3.3l3.1 1.9 1.7 5.3 1.4 3.2 3.2 4.8.5 1.2.9 1.1.8-.1 1.6.2 1.1 1.5.7 1.9z"/>
    <path id="denizli" d="m219 296.6-3.7 3.1-2.1 1.2-.8.4-1.5.9-.7 1.4-.5 1.5-6.7 3.5v1.8l.5 1.8-.1 2.6.6 2.5.7-.1.4.3.3.6.2.9-.2.6-2.3 4.6-5.1 7.7-1.4 3.1-.9 3.4-.4 3.6-2.5 2-.3 4.2-.6 1.7-1.1 1.4-1.8.9-5.2-2.8-2.9-.2-1.2-1.3-.2-1-.2-2.2-.4-2.5-.7-2.5-3.2-3-3.8-1.8-.6-.7-1-1.8-.6-.7-3.9-.5-1.7-2.6-.7-3-1.5-2.7-2.5-1h-1.8l-1.4-.5-.5-1.9v-1.9l.2-1.3-.6-1.2-.3-.9-.4-.9-1.1-.6-.6-2.5 1-2.5 3.7-1 4 .5 2.8-2.7 2.4-3.4 2-.1 1.6-1.2.2-1.8-.5-1.5-3.4-.7-1.1-1.7-.8-1.7-1.1-1.5.1-1.7 1.2-.9.4-1.4-.8-4 .1-2.2-.6-2-2.9-2-.7-1.4-.6-1.5 2.4-.1 2.1-1 .7-1.6-.2-1.8 2.3-4.5 4.9-1.1 3.1.7 2.8 1.7h2.9l2.7-1.8 1.8.3 1.7 1.9 1.7.1 1.7-.6 1.4-.7 1.3.9.6-.1.7-1.3v-.9l2.6-2 3.7.4 4-.1 1.9-.6 1.7-1.5-.4-3.9.4-4 6.5-1.5 7.2 1.7 5.6 9.4 1.4 1.7.8 4.4-1.4 1.7-14.1 10.6-1.6.8-1.7.7-.8 1.9v6.7l1.2.5h2.4l.7.3 1.4.7.8.2.6.5 2.3 4.1z"/>
    <path id="isparta" d="m292.5 252.5 1.5 4.9 4.1 3.3 3.1 4.2 3.6 3 1.8.7 1.2 1.8 3.8 3.3-.4 2.2-3.3 2.1-3.7 1.4-1.7 1.1-1.1 4.3 1.2 5.2.1 5.1-2.1 3.5-.3 3.1-1.7 2.1-2.2.7v2.3l1.3 2 .7 2.4-.5 3.9-1.4 3.7-2.8-.4-2.6.9-2.5 1.8-2.8.4-5.4 1.9-4.6-1.9-.7-1.9-1.1-1.5-1.6-.2-.8.1-.9-1.1-.5-1.2-3.2-4.8-1.4-3.2-1.7-5.3-3.1-1.9h-3.3l-3.7-.6-2.2-1.8-2.1-2.1-2.3-3.3-2.6-1.9-2.4 2.5-1.4 1-1.5.8-5.8 4.3-1.9.9-2-.7-1-2-.7-2.2 4.1-.2 3.7-2 1.7-3.2.7-6.8 1.1-2.1 3.5-2.1 4.7-4.6 2-1.2 2.8-2.5 2.5-2.9 1.9-.8 2-.5 3-2.4 1.1-.3h1.1l4-1.6 3.3-3.1 3.2-3.7 6.5-5.3 2.6-2.8 1-.9 1.3.2 1 .6 1 .8 2.3 3.4 1.2.7 1.3.4z"/>
    <path id="kutahya" d="m210.3 152.7-.9 5.8.3 2.8 1.7 3.7.9 1.1 2.1 1.3 1.8.8 5.8 4.1 2.2.7 4.1-1.2 3.9-.5 2-.5 2 3.3 5.7 5.5 1.4 4.1.7 5.2 5.2 6.9.9 4.3-3.6 5.6-6.2 2.8-1 2.7-.8 3.1-1.4 2.8-1.4 4.5-2.1 3.6-1.5 1.9-10.8 6.5v-6.9l-2.5-2.9-1.5-.6-6.5-1.5h-3.3l-1.4.5-1.4.8-.9 3.7-1.3 3.1-3 .3-6.5 1.8-3.8.2-3.5-.5-3.2-2h-3l-2.9 2.4.2-4.2-1.1-3.1-1.7-3.2.5-4.1-.4-1.1-.5-1.1-3.3-5.3-1.6-1-7.8-1.7-1.1-.9-2.6-2.9.3-.7-.1-1.7-.3-.8.5-2.3 2-1 3.8-1.3 1.7-1.2 1.6-2.9.4-1 1.2-1.5 1.2-2 .7-4.8.7-1.9.6-.6.4-.9v-1.3l.3-1.3 1-2 2 1.6 2.3.5 3.7.5 3.7-.1 2.9-1.8.3-4.5 1.1-3.1 2.4-1.8 1.5-5.4 1-1.1.6-1.6 1.1-4 2.6-1.9 5.5 2.2 1.6.2 1.7-.3 1.5-.7 1.6-.2z"/>
    <path id="manisa" d="m157.2 203.4 2.6 2.9 1.1.9 7.8 1.7 1.6 1 3.3 5.3.5 1.1.4 1.1-.5 4.1 1.7 3.2 1.1 3.1-.2 4.2-1.9 2-4 3.1-.6 1.4-1.6 1.7-1.5.5.2 2.4 1.5.5 1.2 1.5.2 1.4.1 1.6.3 3.3-.3 3.1-.7 2-1.1 1.7-1.4 1.3-.5 1 1.4 1 1.5.1 2 2.1-4.9 1.1-2.3 4.5.2 1.8-.7 1.6-2.1 1-2.4.1-7.1-.2-2.3-3.5-2.2-6.8-1.4-1.9-2.4-.6-1.2-.1-1.8-.6-1-1.2-1.4-.2-2 .6-5.1.8-1.4-3.3-2.1-2.4-1.6.5h-1.6l-2.5-1.2-2.5-.1-.8 2.1-1.3 2.2-2.6.6-2.2-2-.4-1-.6-2.1-.5-1-4-1.9-3.7-2.5-.8-3.7-1.6-1.6-1.1-.1-5.8.1-3.7-.4-3.1-2.6-1.4-4.6-1.2-1.6-.8-.3-1.4-1.5.2-1.4 1.5-2.4 1.6-1.7.9-2.2.3-2.6.6-2.4 2.9-2 3.3-1.3 3.4-2.9 1.4-1.6.4-3.6-1.9-3.6-.9-2.4-1.7-8.1-2-5.2 4-2.1 2.4 1.2 2.2 1.8 3.7 1.1 3.7-.5 2.1.1 2.1 1.1.8.1 1.7-.3.8-.1 1.3 2.2-1.6 2.8-.6 2.3 2.1 1 3.9-1.4.8.4.4 1 4.3 4.7 2.6 6 2.4.9 2.2-1 2.3-.4 1.9-1.2 1.4-1.9 2.2-.4 2.2.2 2-.2 1.9-.5 4.8-2.5 4.6.7z"/>
    <path id="mugla" d="m170.6 367.1 1.1.5-.5.4-.7.9-.3-.7.1-.9.3-.2zm-74.8-18.2-.4.2-.4-.3-1.1-.4-.2-.6-.3-.4-.6-.4.4-.3 1.6.8 1 .3.5.4-.1.5-.4.2zm99.5-6.9 1.2 3.3-.9 3.8 2 .8 2.6-3.2 6.2-.8 4.5 6.1-5.7 13 .7 4-.9 3.6-2.6 1.9-2.4 2.1-.4 1.8.2 1.8-1.1.6-1.6-.7-3.3 1.3-1.7 3.6-.3 1.1-.5.9v1.7l-.3 1.7-1 1.3-1.4.7-.3-.2-.4-1-.7-.8-3.1-1-.9-1.1-.7.5-.2-.9.2-.4v-.5H181l.4-.4-.6-.4-.8-.1.2-.6.4-.4.5-.2.6-.1-.3-.5.3-1.2-.3-1.1-.6-.8-.8-.5v-.4l.7-.5.7-.3v-.5l-.2-2.3-.3-1.1-.5.3h-.4l-.7-.8-2.5 1-1.1-.2 1-.2.2-.7-.3-.8-.6-1 .3-.4.5-1.2.3-.7.8.7.6-.6.7-1 .8-.3v.4l-.3.7.4.2.6-.2.3-.5-.4-1.2-.6-.8-3.3-2.3-4-1.8-.6-.6-.3-.9-.9.6-.9 1.2-.7.7.3.4v.5h-1l-.8.4-.1.5.1 1.1-.7.2.3.5.4.4-.3.5.7.8h.3l.6-1.1.1-.6-.3-.9.9.8-.3 1.1-.9 1-.8.6.4.7-.6.3-.9.1-.7-.1-.5-.6v-.6l.4-.5.8-.2v-.4l-.8-.5-.6-.4-.5-.3-.9.3-.3-1.7-1.9-1.3-2.3-.5-1.6.8h-.3l-.3-1.2-.5-.5-.7.3-.7 1-.4-.5-.6-1.8.5-.9.2-1.2-.2-1.2-.5-.7.3-.4-.3-.9-.3.8-.4.3-.1-.6-.7-.8-1.5-.2-1.1.6.1 1.6-.5-.4-1-.2-.6-.2.7-.5v-.4h-1.2l-.7-.2-.4-.7-.2-1.3.6-.1.1-.6-.3-.3-.2-.9-.5-.3-.1.6-.4.6-1.1.3-1.5.2-.5.2v.3l.7.9 1.2-.1.6.5-.6.9-.4 1-.5.7h-1l-2.7-1.4-.6-.3h-.3l.3 1.3-1.3.1-.6-.2-.2-.5.2-.6.6-.3 1.3-.3v-.4l-.6-.4-.7-.7-.8-.4-.9.4-.7 1.1-.3 1 .1 1 .7.6-.2 1.5 2.1 1.5.3 1.5-.6-.4-.8-.3-.8.2-.3 1-.7-.5-.1 1 .1.4-2.7.9-1 .8-1 1.4-.7 1.4-1 1.6-1.2 1-1.4-.4-.3.6-.7.2.3.9-.6.3-.5.1-.4-.2-.3-.6-.5.9-.7.1-.6-.4-.6-.6.3-.9-.7-.8h3.9l1-.5.6-.6.5-.8.8-.8-.7-.9-1 .9h-.5l.5-.6.2-.8-.2-.8-.5-.5-.6-.2-.1.8-.2.3h-.6l-1-.5-.4.2h-.6l-.5-.3-.2-.6.2-.2 1.9-.4-.4-.5 1.1.1.4-.1.5-.5.2-.4 2-.1.5-.3-.2 1 .8.1.8-.6v-1l-.5-.3-1-.1-.3-.5.1-.4 1-.9.4-.5.3.8.7.6-.3-1.1V360l-.3-.5-.6-.2-.6.1-.5.3-.9 1.4-1.1.8-.4-.1-.3-.7-.8.8-2 .6-.7.4h-.4l-.3-.8-.5.3-.6.6-.8.4-.2-.9-.4.1-.8.8-.7-.7-.3-.1-.4.8h-.4l-.6-.6-.9-.5-1.1-.2-.9.4v-.4l-.7.3-.6-.1-1.4-.2-.9.3-1.1 1.4-.7.5.1 1-.7 2-.1 1.5-1.8-.9-.9-.4-.9-.1-.9.1-.8.2h-.5l-.3-.7-3.6 1.3-.4.7-.5.1-.7-.7-.3-.1-1.7-.3-.6.3-.2-.8-.4-.5h-.5l-.7.4-.1-1.2-.7-.6v-.4l.7.3.8.2h.9l.7-.3.4-.7.3-1 .5-.8.6-.4.5-.1 1.3.1 3.8-.6 1.9.2 1-.3.2-.7.1-.9.3-.8 1.1-.3 2.4 1.4.8-.3.8.5 1.4-.2.6.2 1.3-1.3.7-.3 4.6-.2.6-.2.3.4.8.4 1.1.3h1l1.8-.2.9.3.9.8.1-.7.3-.3 1-.8-.3-.7-.5-.4-.7-.2h-1l.3-.4.5.1.1-.3-.7-1.3.5-.3.4.2 1.4-.7v-.4l-1-1.1-.8-1.2.7.5.4-.5-.3-.2-.4-.7h1.7v-.4h-1v-.5h1.2l.5.1.4.4.6-.4.5.4h.4l.5-.4 1.1.6.8-.2.1.5.3-.1.2-.5-.6-.4v-.4h.9l.6.4 1-1.8.4-.4v-.5h-.7l.4-.6.3-.7.8.7.9.1.4-.3-.3-1 2.8-1.1 1.5-.3v-.5l-.8-.7-.5-.2-6.8 1h-2.5l-1 .2.2 1.2-.9-.5-5.6-.9-.6.2-.6.6-.6.1h-.6l-1.5-.4-1.3.1-4.3 1.4-.8-.2-.4 1-.9-.3h-.6l-.7.3-1-.8h-1.7l-1.6.6-1 1-1-.6-1.4-.5-1.2.1-.3 1.5-1.2-.9-.6-.3-.7-.1-1.6.1-.6-.1-.5-.5-.9-1.4-.4-.4-.7.1-.8.6-.6-.7-.1.6-.6 1.7-.2-.4.2-.6-.4-.4.3-.3-.3-.6-.5.4-1.3.2-.7.3.2 1.1-.3.8-.6.5-.7.3.3.9-.7-.1-.4.1-.3-.5-.9.2-.5-.9-.3-1.5-.1-1.1-.2-1.1-.5-.8-.2-1 .6-1.4h.4l.9-.4.9-.6.6-.8-.8-.4-.4.1-.5-.2.5-.7 1.7.6 1-.3-.1-.4.2-1.1-.1-.7.5.1.4.4.2.6-.1.7h.4l.3-.7.3-.5.4-.1.4.4.4-.5v1.1l.1.3h1l.7.6.7.2.7 1.4.8.5.8-.2 1.3-1 1.1-.5 1-.7h1.2l.6-.3v-.5l-.7.2-.4.3-.4-2-.4-1.1-.6-.5v-.5l2.4-.5.7.1-.6 1.4 1-.5.8-.9-.8-.3-.3-.5v-1.3l.1-.2.7-.5.4-.8.2-1.3-.7-.5-.4-.1-.3.6-1.3-.1-.6.2-.2.5-.3 1-.7.9-.8.4-.7-.3.9-.8.1-.8-.6-.6H96l-.6.8-.5.2-.3-.3.1-.7.4-.6.9-1.2v-.5l.2-.7.1-.9-.6-1.1h-.4l-.2 1.9-1.2.6-1.4-.2-1.1-.9-.5-1.5.5-1.3.9-1.1 1.2-.6-.6-1-1-.4h-.2l.6-1.1 2.8-6.1.7-1.1 1.6-.9 1.7-.1 1.9 1.2 2 .8 4.2.6 3.7 2.5 2.3.4 2.4-.6h2.4l2.2 1.1 3.7.2 6.3-.5 2-1.6 1.9-3.7 2.8-1.9 3.8.8 3.2 2.7 3.8 2.1 6.9.9.6 1.2-.2 1.3v1.9l.5 1.9 1.4.5h1.8l2.5 1 1.5 2.7.7 3 1.7 2.6 3.9.5.6.7 1 1.8.6.7 3.8 1.8 3.2 3 .7 2.5.4 2.5.2 2.2.2 1 1.2 1.3 2.9.2 5.2 2.8 1.8-.9 1.1-1.4.6-1.7.3-4.2 2.5-2z"/>
    <path id="adiyaman" d="m702.3 267.9 1.3.9 4.2-1.8 1.6 1.7.2 1.8-.4 1.5-1.2 2.7.5.9-.5.8-1.9 1.4-2 1.5-3.2.9-.9.5-.6.8-.2.9-.3 2.2-.5 1-.7.5-2.6.8.6 1v.8l-.3.9-.6.9.4.8-.1.6-.3.5-1.4-.4-.4-.1-.8.3-.7.6-.6.8-.4 1 .7-.2 1.5-1 .6-.1.6.5-.1 1.7.6.9-1 .3-1.2.1-1 .2-.7.8.4.3 1.4 1.5-.8.5h-.5l-.9-.6-.3.3-.6.7-.8.4-.7-.1-.8-.8-1 .7.9 1 2.6 2-11.6 1.8-2.5 2.7-.5.2-.7 1.2-3.1 3.3-1.1.7-6.4 1.1-1.6-.7-3 1.2h-.6l-.3 1.5-.8.3-2.3-.3-.4.4-.1 1.6-.6.7-.5-.1v-.6l-.3-.1-2.3-.6-.9-.5-.7-.8-1.5 1.1h-.6l-.8-.6-4.1-3.6-6.1-2.3-5.7-.1-5.7 1.2-5.7-3.5-3.1-1.1-1.8-3v-3.9l2.1-2.6 2.9-2.6 2.5-3.2 7.4-1.4 4.6-1.9 4.8-.7 2.2.7 2.3.3 1.8-.6 1.9-.9 4.3-1.1 3.2-2.8.1-3.5 1.4-2.6 4-2.2 3.3-5 3.8-4.4h3.7l3.1-.9 3 .6.2 2.2-2 1.9-1.1.7.4 1.4.9.4.8.6 3.1.8h3.7l3.6.6 3.8-.8 1.5-.1 1.4-.3 2.1-1 2.3-.5 2.8-1.4 2.4-2.7z"/>
    <path id="elazig" d="m764.1 248.9-17.5.6-.8-.4-1.8-1.4-1.2-.6-2.4.5-.8 2.1-1.1 2.2-1.3 2-1.6 1.1-1.8.6-4-.3-3.9.4-1.5.8-4 .6-2.2 1-4.5-.4-4.3-1.1-7.1 1.2-2.2-.3-4.2 1.5-1.9-.3-1.5-1.4-.9-.6-1.3-.2-.1-.4-1.2-1.9-.4-.4-1.4-1 .4-.5-1.2-.9-1.7.2-3.1 1.2-1.5-.1-4.3-2.2-1 .3-1.1-1-1.4-.4-3-.4-.7-.2-.7-.4-.7-.6-.9-1.2-.6-.3-.6.6-.8-.7-.7-1.2-.5-1.4-.1-1.1-.2-.6-.3-.4-.2-.5.8-1.4.6-1.9.6-1 .8-.9 1-.6 1.3-.2.7-.4.7-1 .3-1.2-.4-1.1.6-.8 1.4-.2 5.7.5.7-.2V229l.2-.4-.6-2.1v-1.4l-.3-4.2-.6-1.9-.9-1.7v-2.8l1.4-1.9 3.7-.2 1.4-.7 1.6-.3 2 3 .1 2-.8 1.7v1.9l2.2 2.2h1.5l4.1-1.1 4.1-.3 2.2 1 1.6-.3h.5l1.6 1 1.7.1 2.1.7 2.1.2 2.4 1.1 2.3 1.6 2.3.7 1 .7 1.2 1.5 1.3-.3 1.3.6 1.3.4 1.6-1.1 1.3-1.7 1.8-.4 1.9.1 5-.3 4.9-1.9 3.2-3.6 1.4-2.8.7-3.2-.2-2.3-.6-2.6.7-1.1 1-.7 2.6-.6 2.8-.2 11.9-6.4 1.8-.6 4.3-1.9 1.6 3.2-2.2 4.3-2.6 3.7-1 4.7 1.2 5.2 3.2 3.9.9 2.2-.3 2.4-.7 2.6-1 1.8-1.7-.6-1.6-.3-2.4 7.1 2.8 4.2.5 2.9.2 3.1z"/>
    <path id="kahramanmaras" d="m606.8 240.5-3 5.2.6 3.9h.9l1.9-.4 1-.1 7.8 1.7 6.6 3.9 3.6 1.1 4.1 1.9 2.5 4.5-.3 2.7-2.9 7.6-.3 2-1 1.6-.8.8-1.2 2-2.7 9.7-2.1 3.9-2.5 3.2-2.9 2.6-2.1 2.6v3.9l1.8 3 3.1 1.1 5.7 3.5-.1 2 .4 1.9-.7 3-2.2 1.5-3.3-.1-3.3.4-7 2.5-6.5 1.1-2.9 1.5-4.7 5-4-1.3-1.5-5.9-2.6-1.6-2.4 3.4-6.3 2.9-2.3-3.4-2.8-2.6-1.8-1.3-2-.5-5.7 1.1-2 .8-1.7.3-.9-1-1.3.5-.5.3-.3.6-.5.1-2.2-2.6-.2-4.4-.6-.8-.7-.7-.6-1.9.4-2 1.5-1.6 1.1-1.9.1-5.2 1.4-1.9 1-.5 1.7-1.7.2-2.7-1.7-4.1-.3-3.1.1-2 .6-4.4 1.6-4.2 2.6-11.8 1.6-4.1 2.9-2.8 1.9-2 1.7-2.4 4-4.7 1.6-2.7.7-3.5 1-2 1.7-1.1 6.9-1.7 6.8.9 1.3.9 1.3.6 11.7-1z"/>
    <path id="malatya" d="m680 212.4-3.7.2-1.4 1.9v2.8l.9 1.7.6 1.9.3 4.2v1.4l.6 2.1-.2.4v1.6l-.7.2-5.7-.5-1.4.2-.6.8.4 1.1-.3 1.2-.7 1-.7.4-1.3.2-1 .6-.8.9-.6 1-.6 1.9-.8 1.4.2.5.3.4.2.6.1 1.1.5 1.4.7 1.2.8.7.6-.6.6.3.9 1.2.7.6.7.4.7.2 3 .4 1.4.4 1.1 1 1-.3 4.3 2.2 1.5.1 3.1-1.2 1.7-.2 1.2.9-.4.5 1.4 1 .4.4 1.2 1.9.1.4 1.3.2.9.6 1.5 1.4 1.9.3 4.2-1.5 2.2.3.9 1 .6 1.4.2 1.6-1.7 6.1-2.4 2.7-2.8 1.4-2.3.5-2.1 1-1.4.3-1.5.1-3.8.8-3.6-.6h-3.7l-3.1-.8-.8-.6-.9-.4-.4-1.4 1.1-.7 2-1.9-.2-2.2-3-.6-3.1.9h-3.7l-3.8 4.4-3.3 5-4 2.2-1.4 2.6-.1 3.5-3.2 2.8-4.3 1.1-1.9.9-1.8.6-2.3-.3-2.2-.7-4.8.7-4.6 1.9-7.4 1.4 2.1-3.9 2.7-9.7 1.2-2 .8-.8 1-1.6.3-2 2.9-7.6.3-2.7-2.5-4.5-4.1-1.9-3.6-1.1-6.6-3.9-7.8-1.7-1 .1-1.9.4h-.9l-.6-3.9 3-5.2 3.1-1.4 2.6-2.5 2.7-3.1 1.1-.4 2.3-1.5 3.7-4 .8-2.5-.3-1.5-.6-1.4-.9-3-.5-3.2 1.1-2.6 2.3-.6 4.4 2.2 4.4-.9 1.8-1.3 2-.8 1.9-1.3 1.9-.9 4.1-.1 1.7-.8 1.9-.3 3.5.5 3.4-1 3.7-2.9 4.1-1.4 4.1 2.1 5 .3 2.3.9 2.2 1.3 3.4 4z"/>
    <path id="mersin" d="m476.9 321 1.7 3.9 1.9 3.7 2.5 1.9.2 6.7 1.2 3.8 2.4 1.8 3.2-.1 2 2-1.5 4.1v3.7l.7 3.7.2 1.8-.2 1.8-1.9 1.8-2.2.6-2.8 1.9v.1l-1 .2-.7.3.3-1.3-.7-.4-2.1-2.3-4.3-2.2-.3.4-1.5-.8-2.3.5-3.4 1.6-1.6.3-.6.2-1.6.9-.3.3-.5 1.2-.3.3-1.6.9-4.5 4.1-5.7 3.6-1.6 1.4-4.5 5.7-.4 1-.2.6-.5.5-1.1.5-1.9 1.9-1.8 1-.1 1.7.3 2.1-.1 1.7-1.1.9-1.6.3-1.4.5-.5 1.4.3.1-1 1.3-.4.8-.2 1v.7l-.3.5h-.9v-.4l.5-1.2-.3-1.8-.8-1.6-1.1-.7-.7-.3-.7-.4-.6-.2-.8.7-1 1.6-.9.9.3.4-.6.5-.8 1.4-1.1.3-1.8.8-.4.3-1.6 1.7-.2.7-.3 1.8h-.5l-1.3-2-.2-.9-.5-.3-.7.2-.7.3-1.2 1.1-1.2 1.5-1.1 1.1-1.2-.2.7-.4v-.4l-1.2-.2-2.2-.6-1-.1-1.2.2-1.8 1-.8.1-2-.7-1.1-.1-.9 1.1-1.2.2-2.3-.1-1.5.5h-.6l-.7-.1-1.1-.6-.5-.2-1.2.4-.7.8-.5 1-.7.9-.5.4-.9-.4-.7-.1-1.6.1-3.5-.8-1-.1-3.3 1.8-.6.2-.5.7-2.8 2.2-2.2-.1-4.7-1.1-2-1-3.1-2.1.1-.4.8-1.3.4-1.5.2-1.7.7-1.7.9-1.6.8-3.1-.3-7.2.5-3.8 3.4-.4 3.4.9 3.2-.1 2.9-1.3 3.1-.8 3.2.2 1.7-.3 1.2-1.2.7-2.4.7-2.1.7-.3.8-.2 1.9 1 2 .8 1.3-1.7-1.2-2-2.4-1.8-2.8-.7-1.1-.9-1-1.3-1.3-.6-.7-1.7-.5-1.9-.9-1.5-1.1-1.3-.1-2.1 2-.4.8-.3 2.4-1.5 1.5-.6.7.4.5 1.2 1.9.5 1.1-1.9.6-2.9 1.7-2 2-.6 1.7-1.3 1.7-1.5 1.9-1.2 2.1-.6 6.6-.6 4.2-1.6 4.3-.4 1.8.6 1.3-.2 1.9-1 3.8-.7 5-3.9 1.9-.8 3.9-.3 3.7-1.4 1.8-2.2 1.4-.8 4.5-1.6 3-1.5 2.3-2.2 1.6-.9 2.7-.9 1-.7.6-2.1 3.9-.1 1.8-.6 1.6-1 3.6-1.6 3.7.9z"/>
    <path id="kirsehir" d="m474 187-2.9.5-3.4-.8-1.1.7-.2 1.5.4 2.4 1.2 2 .6 3.5-.7 4.4 1.5 2.7 1.2 2.6-2.2 2.8-3.2 1.4-2.8 1.8-6.3 2.6-1.2 3.6.7 3 .2 1.5-2.1.6-5.8-4.9-1.1.2-2.3-.3-1.1.3-2.6 1.6-2-1.9-.8-2.6-2-1-1.2.1-2.1-.4-.7-1 .3-2.3-3.2-1.2-.7-.7-1.7-.8-2.8-.2-1-.8-.9-1.3-.7-.6-.9-.3-2.6-2.2-5.9-3.7-1.1-3.8 5.9-10.3 8.4-6.8 3.6-5.7 2.4-7 8.3-8 1.1 1 1 1h2.9l2.7 2.6 2.6 3 2.4.8h4.1l1 1.5.5 1.5.6 1.4 7.2 8.9 2.3 1.5 2.6.5 2.3 1.9 1.3 3.2z"/>
    <path id="kayseri" d="m578.8 240.8-1.7 1.1-1 2-.7 3.5-1.6 2.7-4 4.7-1.7 2.4-1.9 2-2.2-2.3-1.3-3.5-2-3.1-2.7-1.2-4.2 1.1-4 2.3-2.3 1.9-2.2 5.5-1.5 2-2.2 4.6-2.8 3.9-19.4 13.3 1.2 12.1-2.8 1.3-6.4-2.5-4.7-1.2-9-.7.9-4.1.2-3.4 2.4-1.5-.5-2.4-1.1-2.3-.2-2.8.5-2.8-1.4-4.5-8.5-.1-3-3.2-3.7-10.2 1.4-2.7 2.1-2.3 4.6-7.4.3-3.1-.6-3.1.2-3.1-3.6-4.7-2.4-4.9 1.4-3.4 1.1-3.6v-1.6l.1-1.7.6-1.4.7-1.2 11.8 1.9 5.9-3.8 2.3-.8 16.9-11 4.4-6.1 2.7.2 2.6 1.3.4.7.7 1.4.4.5 1.7.7 1.7.3 5 3.6 5.1.7 4-1.4 8.6 1.2 2.6 2 2.6.9 4.7-1.6h4.9l4.4.9 4.2 2.2 1.9 6-2.2 6.3-1.2 2.5-1 2.5-1.4 5.3-2.1 6.1-.2 1.1-.4 1-1.2 2.2-.2 2.8z"/>
    <path id="nevsehir" d="m474 187 .9.2 1.5.7.4.8.2 1.5.5 1.3 1.3 1.6 1.7.9 1 2 .7 2.7 4.2 2.6 1.1 2-.4 1.6.2 1.6.4 1.4.8 1.6.7 1.7-.7 1.2-.6 1.4-.1 1.7v1.6l-1.1 3.6-1.4 3.4 2.4 4.9 3.6 4.7-.2 3.1.6 3.1-.3 3.1-4.6 7.4-2.1 2.3-1.4 2.7-5.4 2.1-2.7-.7-2.2-2.2-1.4-.8-3.1.1-4.4 1.4-3-.5-1.9-1.2-1.8-1.8-2.1-1.7-.9-.9-.1-3.2 1.6-3.4-.4-3-1.1-.4-2.3.5-2.6-.8-2.4-1.6-.7-3.3 1.8-3.1.8-3.3-1.7-6 .6-2.7 5.8 4.9 2.1-.6-.2-1.5-.7-3 1.2-3.6 6.3-2.6 2.8-1.8 3.2-1.4 2.2-2.8-1.2-2.6-1.5-2.7.7-4.4-.6-3.5-1.2-2-.4-2.4.2-1.5 1.1-.7 3.4.8 2.9-.5z"/>
    <path id="hatay" d="m543.1 345.8 2.3-.4 2.1.6 2.2.1 2.4-.7 2.4.8 1.7 1.8 2 1.3h2.6l2.6-.3 3.4 3.4 4.2 1.9.9.8.4 1.4.7.5.8.1.5.6h-1.1l.2 1.6-.6 1.2-.8 1.2-.7 1.3-.2 1.4v1.3l-.2 1.2-.6 1.6-.7 2.7v2.9l-.3 2.8-1.5 2.5-.2 1 .1 1.1 1 3.5.6.8 1.1.5.4.9.1 1.1-.7 1.5.3.6 1.7.2.9.3.6.7.5 1 .4 1.1.2.9v1.4l-.3.6-3.7.7h-1l-3.9-.6-1 .1-.6.2-.2.9-.3.4-.4.2-2.1-.3-.7-.3-.6-.4-.7-.8-.6.6.8.9-.1.5-.7.9-.1 1-.2 9.3.1 1.9-1.1.3-2-.8-1.1.5-.4 2.2-.8.2-1.3-.3-1.7.6-1.1 1.9-.3 4.5-.6 1.9-1 .2-3-2.2-1.6-.7-1.6-.1-.8-.2-.6-.5-.1-.8.1-.8v-.9l-.7-.7-1 .2-1 .3-1.1.3-.4-.2.5-.9 2.3-4 .6-.5-.1-1.1-1.4-4.5-3.7-6.1-.7-.9-.6-1.1-.6-2-.7-.9-.9-.7-.6-.8-.6-1.5.1-1 1.4-2.1.4-.6.5-.3 1.2-.2.3-.3.6-1.5.4-.5.9-.5.5-.4.3-.6.2-1.3.7-.4.6-.7 2-.7.5-.3 2.4-3 .4-.7.6-.1 5.6-3.6.8-.1.5-.5.7-1.2.5-1.3.2-1v-.9l-.5-1.1-.2-1.2v-4.1l-.2-1-.5-1.1-3.1-4.4-1.7-1.8-2-1.4-2-.5-1.8.7-1.8 1.6-.9 1.1-.9-1.3v-2.7l4.3-4.9 1-.7 1.1.3 1.2.4z"/>
    <path id="amasya" d="m563 86.6-1.5.8v.5h.4v.5l-.7.9.6 1.2 1.1 1 .8.6.9.4 1 2.7-1.8 2.7-.9 2.3v2.5l-2.3 3.3-4.2.9-.4 3.5-.8.5-.7.7-4.3 2.8-3.2 1.6-1-.1-.9-.7-1-.5-1.1-.3-1.5-.8-1.3-1.1-4.2-1.1-4.3.3-1.4 1.7-2.3 5.2-1.6 2.7-1.3 2-1.6 1.8-1.8.8-1 .3-2.8 1.2-1.5 1.6-2.1 4.4-2.6-.8-2.7.2-2.3-.2-1-.7-.4-1.4-.5-.2.6-4.7v-1.8l.5-1.6 4.5-6.9 1.2-4.9v-2.6l-1.3-3.1-.9-.4-1.8-.3-3.9-2.4-8.7-1.5-1.6-1-1.4-2.5-2.1-4.5-.5-1.9.8-4.5.1-6.9.7-2.1 1.1-1.4.8-1.7-.5-2 16.2 4.6 3.2-.6 1.7 1 7.5 5.8 1.8 3.1 1.8.5 3.9-.3 2 .4 6.9.1 4.1 2 2.2-.5 1.9-1.7 2.3-1.5 1.6-2.9 1-3.1 2-1.3 1.9.7 1.5 1.6.6 1.6.9 1.4 5.6 4.1z"/>
    <path id="corum" d="m481.9 58.9 2.7 4.9.7 2.5.3 2.7.8 2.6 4-.5 2 .5.5 2-.8 1.7-1.1 1.4-.7 2.1-.1 6.9-.8 4.5.5 1.9 2.1 4.5 1.4 2.5 1.6 1 8.7 1.5 3.9 2.4 1.8.3.9.4 1.3 3.1v2.6l-1.2 4.9-4.5 6.9-.5 1.6v1.8l-.6 4.7-2.1.8-5 .4-.5 3 .7.8-.2 1.2-.6 1.5-.1 1.3-1.4 1.9-4.1 2.4-2.4.3-4.4-1.3-7.8 3.8-4.2.3-2.1-.2-3.1 1.2-8-1.5-5.1 1.7-4.9 2.3-8.2 1-3 1.4v-3.5l1.4-2.8 1-1.7.2-2.2-.7-2-.2-1.5-1-1.1-1.2-.2-1.3-1.3-2.2-4.9-.6-3.2 4.2-2.4 1-.2 1-.5 1.5-2.6 1.2-2.8.7-.5.1-1.8-.3-1.8-.6-1.8-.8-1.7-1.3-2.1-.7-2.6.2-2.5-.4-2.4-1.3-2.5-.3-3 1.1-2.7.6-2.7-2.6-4.3 4.6-1 7.4-3.1 1.2-3.4-1.7-1.9-1.1-.4-1-2.6.6-1.4 1.8-2.2 1.8-4.5 2.4-2.2 1.2-1.5 1.5-3.8 1.8-2.6 2.7-.6 1.4 1.7 1.9-.1 1.2.2.8 1 1.8.3 1.7-.4 1.6.4 1.3 1 .5 1 .9.6 6 1.9 1.1-1.4.9-.8.4-.9.1-1.2.1-.5z"/>
    <path id="giresun" d="m703.8 93.4-6.3.8-.4.8-.2 1-1 .5-1.3.4-1.5 1.3-1.6 1.1-.7 1.7.7 2.2-1 1.8-1.6 1.6-.5.8-.1.5-.4 3.1.1 2.5 1.5 1.7 6.1 1.5 1.5 1.2 1.4 1.5 1.2.4-.3 2.5-1.6 1.2-5.2 3-1.2 1.4v2.2l.2 2.3-.2 2.5.4 2.4 1.5 1.8-.5 2.3-2.1 1-4.6.3-2.3-.2-5.2-2.6-5.5-1.7-5.3 1.3-3.2-2-3.2-2.4-2.9-1.5-1.9-2.9.1-3.9-4.3-16.3-5-5.6.2-1.9.7-1.3.2-2.3-.2-2.3.3-2.4-.3-2.3-.9-1.9v-2.2l.9-1.7 1.1-1.3.8-2.1-.2-2.4.1-.3 2.4.5 2.1.7h1.2l2.3-.6 1 .2 2.3 2h1l2-.6 2 .6 1.3.1.6-.5 4-.2.8-.6 1.9-1.9.7-.4 1.6-.5.7.1.3.2 1.2 1.6.5-.3h1l.5-.1 1.4-1.3.6-.1 1.5-1.9 1.2-.4 3.6-.8.9-.5.8-.8 1-.3 5.9-.1 4.2-.9 1.4-1.1-1.5 8.4-.1 3.5.4 6.3 1 2.6z"/>
    <path id="ordu" d="m650.1 80.5-.1.3.2 2.4-.8 2.1-1.1 1.3-.9 1.7v2.2l.9 1.9.3 2.3-.3 2.4.2 2.3-.2 2.3-.7 1.3-.2 1.9 5 5.6-1.5 1.3-1.8.8-2.4.3-2.1.5-.6.8-.1 2 .5.8-.2 1.2-1.1.7-4.3-.2-1.9 1.4-1.6 2.1-1.5 1.2-1.8.2-4-3.2-2.9-5.6-.9-4.2-1.7-3.3-7.1-.4-11.9-8.4-3.5-.3-3.6.5-3.7-.3-3.5-1.4-2.6-1.7-4.4-1.5-2.9-1.8-2.3-.5-.7-.5-.6-2 .9-1.9 1.1-.3 1.1-.5 2.2-.2 2.1-.7 1.9-1.1.8-.6 2-2.3 4.2-2.3 2.2-4.3 2.9-3.2 2.8-3.7v-.4l5.8-.1 1.9.5 1.2 1.2.6.3 1.1.3 1.2.2.9.2 1.3 1.5.9.7 2.1.7.2.3 1.2 1.4 1.1.4 2-.3.9.3.3-.4.7-.3.4-.2.4-.6.7-1.8.6-1.2.8-1.1.8-.9 1-.7.4 1.2.9.6h1l.9-.8.3.5 1.4-.2v4.3l1 1.2 2.6 1.3.8.6.5.7.9 1.6 2-.9 2.5.3 6.3 2.1.6.1z"/>
    <path id="sinop" d="m513.8 33-2 4.8-.3 3.5.9 3.3.1 2.1-.2 2 .3 1.6.7 1.4.3 2.1.5 4.1-1.1.8-2.6-.7-1.1.5-1.6 1.1-2.2.4-2.3-.3-1.6-.9-.9-1-.5-.2-2.3-.3-.5-.4.6-.8-1.8-.9-.8-.6-.3-.6-.1-1.3-.3-1.2-.5-1-.5-.6-.6 1-1.4.8-2.7 1.1-1.7 1.6-.6.3-1.4.1-.5.2-.5.6.4 1.3-.8.8-1.2.6-.8.6-.1.5-.1 1.2-.4.9-.9.8-1.1 1.4-6-1.9-.9-.6-.5-1-1.3-1-1.6-.4-1.7.4-1.8-.3-.8-1-1.2-.2-1.9.1-1.4-1.7.4-9.1-.5-1.4-.4-1.3.5-2.7 1-2.3 1.6-1.5 1.7-1.2 1.8-4.7-2.9-3.9-3.5-1-6.3-.3-3.2-.9-2.2-.2h-1.9l-3.4-1.3.1-2.3 2.6-3.2 1.5-4.1-.2-4 6 .9 5.9-1.7 2-.2.8.2 1.5.8 1.8.6 6.9.4 2.7-.3 2.7-.8.9-.5 2-1.6 1.9-1.1 1.5-2 1.2-2.3.3-2.1.8.3 1.5.2.6.5.1-.5 1-.1.4.9.9 1.1-.2.5v.4l1.9 1.6 1.2.5 1.5-.1.6-.4.8-.9.6-.2.7.2.6.3 1 1v.5l-2.8-.4-1.3.2-1.1.9-.5 1-.4 1.6-.3 1.6-.1 1.3.4 1.1 1.4 2.6 1.6 2.1 2.8 2.4v.5h-.7l.3.9.5 1.1.7.9 1.5.8 1.5 1.9.8.6 3.1 1.3 2.3.4.8.5 1.7 1.6 1.9 1.1.7.2z"/>
    <path id="sivas" d="m683.8 142.5-.1 3.5-1.1 2.6h-2.4l-2.4-.4-2.7.6-2.5 1.8-2.5-.4-2.4-1.9-2.4 1.3-1.9 5.7.4 2.1 3.6-.1 3.8-.9 1.1 1.3-.5 1.8-1.1.3-1-.1-2 1.1-1.3 2.2-2.5 3.5-.6 7-1.2 2.4.6 2.5 1.8 1.8 1.7 1.1 1.2 1.7-.4 1-1.9 1.2-1.5 1.7-.6.1.3.8v1.1l.1 2.3.6 1.9.3 2.1-.2 1.1-.1 1.3.6 2.2-.4 2.2-1.2 1.8-4.1 1.4-3.7 2.9-3.4 1-3.5-.5-1.9.3-1.7.8-4.1.1-1.9.9-1.9 1.3-2 .8-1.8 1.3-4.4.9-4.4-2.2-2.3.6-1.1 2.6.5 3.2.9 3 .6 1.4.3 1.5-.8 2.5-3.7 4-2.3 1.5-1.1.4-2.7 3.1-2.6 2.5-3.1 1.4-11.7 1-1.3-.6-1.3-.9-6.8-.9-6.9 1.7.2-2.8 1.2-2.2.4-1 .2-1.1 2.1-6.1 1.4-5.3 1-2.5 1.2-2.5 2.2-6.3-1.9-6-4.2-2.2-4.4-.9h-4.9l-4.7 1.6-2.6-.9-2.6-2-8.6-1.2-4 1.4-5.1-.7-5-3.6-1.7-.3-1.7-.7-.4-.5-.7-1.4-.4-.7-2.6-1.3-2.7-.2 1.9-2.3 2.4-1.8 1.7-2.2 1.2-2.5 1.6-2.5 1.8-2.2 4.5-3.5 3.8-3.8 1.6-5.6-.2-1.6-.5-1.4-1.8-1-2.5-4.5-1.5-5 12.2-2.5 8.6-.4 7.7-3 1.6-1.7 1.1-2.6 1-4.1 1.4-4 1.9-1.1 2-.6 6 .8 1.9-.8 6.8-1.8 4.8-.7 4.4.3 4.4-.7 1.9-1 1.8-1.5.7-.2h.8l2-.5 1.8-.8 3.2-4.4 2.6-5.4 2.9 5.6 4 3.2 1.8-.2 1.5-1.2 1.6-2.1 1.9-1.4 4.3.2 1.1-.7.2-1.2-.5-.8.1-2 .6-.8 2.1-.5 2.4-.3 1.8-.8 1.5-1.3 4.3 16.3-.1 3.9 1.9 2.9 2.9 1.5 3.2 2.4 3.2 2 5.3-1.3 5.5 1.7 5.2 2.6z"/>
    <path id="samsun" d="M599.9 67.5v.4l-2.8 3.7-2.9 3.2-2.2 4.3-4.2 2.3-2 2.3-.8.6-1.9 1.1-2.1.7-2.2.2-1.1.5-1.1.3-.9-1.6-1.8-1.3-2.7-.1-.4-.2-.3.5-1.8.8-5.7 1.4-5.6-4.1-.9-1.4-.6-1.6-1.5-1.6-1.9-.7-2 1.3-1 3.1-1.6 2.9-2.3 1.5-1.9 1.7-2.2.5-4.1-2-6.9-.1-2-.4-3.9.3-1.8-.5-1.8-3.1-7.5-5.8-1.7-1-3.2.6-16.2-4.6-2-.5-4 .5-.8-2.6-.3-2.7-.7-2.5-2.7-4.9.8-.6 1.2-.6.8-.8-.4-1.3.5-.6.5-.2 1.4-.1.6-.3 1.7-1.6 2.7-1.1 1.4-.8.6-1 .5.6.5 1 .3 1.2.1 1.3.3.6.8.6 1.8.9-.6.8.5.4 2.3.3.5.2.9 1 1.6.9 2.3.3 2.2-.4 1.6-1.1 1.1-.5 2.6.7 1.1-.8-.5-4.1-.3-2.1-.7-1.4-.3-1.6.2-2-.1-2.1-.9-3.3.3-3.5 2-4.8 1.6.6 2.4.3 2.3-.2 1.1-.5 1.9-1.2 3.2-.6 5.6-2.3 1.2-.2 1.2-.5 2.2-1.7 1.1-.3v.5l-.5.9-.4.3-.5.2.1 1.1-1 2.2.2 1.1h.3l.2-1.7.5-1.5.7-1.2.7-.9.8-.5 3.2 2.9v-.9h.3l4 5.1.7 2v2.9l-.2.7-.5 1.4-.1 2.3.2 1.1.6 1.2 2.3 2.9 1.3.9 1.7 3.4.9.7 2.6 1.4 1.5.3.3.4.3 2 .4.4 1.2.4 1.1 1.5.5.2 1 .1.4.4 1 .4 1.3-.3 2.2-1.3 2.7-2.4.5-.7.1-.6 1.1-1.9.3-1.5.6-.7.7.1.9.3 1.1.2h4.5l4.1 1.1 7.7 3.9 1.6 1.4.9 2.2.1 3.1.3 1.2.8.5 1.1.2 2 1.2 1.1.5h.8z"/>
    <path id="tokat" d="m576.6 87.1-.9 1.9.6 2 .7.5 2.3.5 2.9 1.8 4.4 1.5 2.6 1.7 3.5 1.4 3.7.3 3.6-.5 3.5.3 11.9 8.4 7.1.4 1.7 3.3.9 4.2-2.6 5.4-3.2 4.4-1.8.8-2 .5h-.8l-.7.2-1.8 1.5-1.9 1-4.4.7-4.4-.3-4.8.7-6.8 1.8-1.9.8-6-.8-2 .6-1.9 1.1-1.4 4-1 4.1-1.1 2.6-1.6 1.7-7.7 3-8.6.4-12.2 2.5-.6-1.5-1-.9-1-2 .1-2.6.4-3.8-2.2-2.2-2.2.6-2.2 1-2.4.5-2.4.2-4.1-.8-4.9.4-4.1-2.9-3.6-4.1 2.1-4.4 1.5-1.6 2.8-1.2 1-.3 1.8-.8 1.6-1.8 1.3-2 1.6-2.7 2.3-5.2 1.4-1.7 4.3-.3 4.2 1.1 1.3 1.1 1.5.8 1.1.3 1 .5.9.7 1 .1 3.2-1.6 4.3-2.8.7-.7.8-.5.4-3.5 4.2-.9 2.3-3.3v-2.5l.9-2.3 1.8-2.7-1-2.7-.9-.4-.8-.6-1.1-1-.6-1.2.7-.9v-.5h-.4v-.5l1.5-.8 5.7-1.4 1.8-.8.3-.5.4.2 2.7.1 1.8 1.3.9 1.6z"/>
    <path id="artvin" d="m876.2 47.7.7 4 .4 3 .6 1.7.4.7 1 2.5 1.5 4.8-1.4 4.7-4.4 2.2-4.5 5-3.3 6.5-3 .3-3.1.7-3.6-.4-3.6.3-1.8 1-1.6 1.4-.6 2.7.3 3-1.3 2.8-2.1 2.1-1 2.7-.1 3.1-2.4 3.6-4.5-2.5-4-1.2-4.1 1.2-4.4 2.9-4.8 1.8-3.6-3.1.7-5.9 1.4-2.5-.4-2.2-1.9-.7-6.5-1-4-2.3.7-2.8 5-5.8 1.2-.6 1-1 .5-1.5.8-1.4 2.8-1.8 1.4-3.3-1.5-1.7-2.1-1-.5-1.2-.6-1.2-1.1-.7-1-.9-1-2.4-.4-2.7-1.5-3.8 4.5-3.7 1.3-.5 1.1-.6.6-.2 1.8-.2.7-.3 1-.7.7-1.3.6-1.4.2-1.6.5-.3 3.1-2.8.7-1.3 5.5 2.4.7.1 1.6-.1 1.3-.6.4.3v1.1l.2.4.6.2 1.5.2.7.3 2.1 1.9.6.3.5-.3 2.1-1.8 1.6-2.4.8-.5 2.1-.9 3.7 1.5 1.8-.6.8-.4.7-.1.7.1.8.4 1.6-.5h.8l.8.5.8.8 1.3.1 2.5-.1 9.2 3.5h.7z"/>
    <path id="erzurum" d="m880.7 105.3-.4 2.4-.8 2.3 1.2 6.9-2 1.3-2.2.9-1.8 1.2-1.7 1.4-3.3 1.9-7.6 2.6-1.6 3.7 1.8 2.2 1.1 1.8 1.3 1.4 4.5.8 1.7.6 1.5 1.1.9 1.2.7 1.4.8.7 1.1.3 2 .9 1.4 2.1 1.2 2.7 1.6 2.5-1.5 1.6-1.7 1h-1.4l-.7.1-1.2.6-1.1 1.6-1.9.6-3.9-.7-1.9.8 4.3 5.2 7.4 3-.7.5-.6 1.8.1 9.2-.5 3.2-1.6 2.7-1.1.4-2 .3-1.9.1-7.2 3.6-1 3 .3 3.1-1.5 2.5-3.6 2.2-1 1.2-1.6 1.5-6.4 1.1-2.1 1.2-2.1 1.6-4.5-.2-4.4-1.8-1.3-1.1-3-4.3-5.1-5-1.9-1.3-4.2-1-8.4 1.4-2.2-3.9-2.3-2.7-3.2-.4-3.8-1.8-5.1-4.8-1.6-.9-1.5.8-1.5 1.1-4.7 2-4.6-.7.1-4.1 1.9-3.6 1.2-2.8-1.7-1.9-2.2-1-2-1.4-1-1.2-.7-1.4-.2-1.9.1-1.9-3.5-4.6-8.9-.2-2.8-1.4.5-3.9 1.6-3.6 8.5 1 1.9-.3 2.3-1.8 2.2-2.2 2.9-1.4 6.5-2.3 1.5-1.8 1.2-2.5-.1-1.4-3.5-.3-1.5-.6-3.4-.8-3.2-1.8-1.3-4.2-1.5-9.3-1.7-4.2 8.5-4.3 2-.5 2.2-.3 3.1-.9 1.6-3.9 1.8-.8h2.3l2.2-.8 5.6-4.8 4-2.3 4 2.3 6.5 1 1.9.7.4 2.2-1.4 2.5-.7 5.9 3.6 3.1 4.8-1.8 4.4-2.9 4.1-1.2 4 1.2 4.5 2.5 2.4-3.6.1-3.1 1-2.7 2.1-2.1 1.3-2.8-.3-3 .6-2.7 1.6-1.4 1.8-1 3.6-.3 3.6.4 3.1-.7 3-.3 1.1 5.3 2.7 4.1 1.9 1.3 1.5 1.9 1.1 2.7 1.5 2.3 2.1 2.1 1.6 2.8z"/>
    <path id="erzincan" d="m763.1 143.1-1.6 3.6-.5 3.9 2.8 1.4 8.9.2 3.5 4.6-.1 1.9.2 1.9.7 1.4 1 1.2 2 1.4 2.2 1 1.7 1.9-1.2 2.8-1.9 3.6-.1 4.1-3.4-1.1-4.2-.1-4.3-.7-7.7-.2-1-.6-2-.7-.6-.1-.1.2-1.7.6-2 .9-1.1.2-4.8 1.6-4.1-1-2.8-1.6-1.9.6-2.4 3-3.6 1.2-8 1.2h-4.1l-4-.9-4-.3-2.1 1.1-2.2.6-2.7-.5-2.7.5-5.2 2-1.4 1.1-1 1.8-1.3.7-1.5-.1-.7 1.1-.6 1.2-.6.3-3.1 1.1-.9 2.2.7 2 .7 1.3-1.4.9-1.4.3-1.2.7-.8 3.8-1.8 1-.2 1.6.2 1.6.9.7.4 4.2-1.6.3-1.4.7-3.4-4-2.2-1.3-2.3-.9-5-.3-4.1-2.1 1.2-1.8.4-2.2-.6-2.2.1-1.3.2-1.1-.3-2.1-.6-1.9-.1-2.3v-1.1l-.3-.8.6-.1 1.5-1.7 1.9-1.2.4-1-1.2-1.7-1.7-1.1-1.8-1.8-.6-2.5 1.2-2.4.6-7 2.5-3.5 1.3-2.2 2-1.1 1 .1 1.1-.3.5-1.8-1.1-1.3-3.8.9-3.6.1-.4-2.1 1.9-5.7 2.4-1.3 2.4 1.9 2.5.4 2.5-1.8 2.7-.6 2.4.4h2.4l1.1-2.6.1-3.5 2.3.2 4.6-.3 2.1-1 1.4.9 1.5.7 1.6.2 1.6.4 5.6 3.4 2 .8 1.9 1.2.8 1.1 1 .9 3.1 1 3.1 1.6 3.2.3 3-.3 3.1.2 3-.3 2.8-1.4 5.8-1.4 2.3-2.4 2-3 2.8-1 3 .2 2.6-.3 2.1-1.9 2.4-1 8.6 1.8z"/>
    <path id="rize" d="m807.2 90.6-4 2.3-5.6 4.8-2.2.8h-2.3l-1.8.8-1.6 3.9-3.1.9-2.2.3-2 .5-8.5 4.3-.7-4.4.6-4.6-3.3-8.4-.6-4.8-1.3-4.6-1.8-4.3 5.8-3.9 1.9.8 1.5.1 1.5-.4 1.6-1L781 72l.7-.2 1.7-.2.8-.3.6-.4 3.1-4.2 3.6-2.8.6-.2.8.1 2.3.9 1.3-.3 1.9-1.3.9-.4 1.1-.1 1.2-.5 1.2-.6.9-.7 2.1-2.2 1.1-.7 1.3-.4h1.3l1-.4.4-.3 1.5 3.8.4 2.7 1 2.4 1 .9 1.1.7.6 1.2.5 1.2 2.1 1 1.5 1.7-1.4 3.3-2.8 1.8-.8 1.4-.5 1.5-1 1-1.2.6-5 5.8-.7 2.8z"/>
    <path id="trabzon" d="m766.8 78.1 1.8 4.3 1.3 4.6.6 4.8 3.3 8.4-.6 4.6.7 4.4-1 .2-2.1.7-5.4-.1-2.6.5-2.5.8-2.3.1-4.3-1.4-4.5-.1-2.1-1.3-3.2-3.6-1.6-.6-1 .9.3 1.6-.8 1h-1.1l-2.5-4.2-3.5-2.4-1.7 1.2-.6 2.8-.8.9-1 .3-3.2-.4-12.1-5-3.5-3.6-.8-4.1-2.2-1.2-.9 1.2-1 .9-1.1-.1-1-.8-1-2.6-.4-6.3.1-3.5 1.5-8.4.4-.3.6-.2 1.8.2.9.3 1.6 1.4 1.2.2.9-.3 1.4-1 1.1-.2.6-.2 2.8-1.6.8-.9.6-.1 3.3.8.7.7 1.3 1.8 3.1 2.7 2 1.2 2.1.4 1-.4 1.1-.5 1-.1 1.4 1h1.8l.4.1 3.1 2.5 1 .5 1 .2.8-.7 3.3-1.1 1.3-.1 3 2.8 1.5 1 2.1.4.8-.1 1.6-.7 1.2-.3 1.9-.7 1.2-.8 2.4-.7 2.7-1.7z"/>
    <path id="agri" d="m921.4 148.4 1.2 3.8-.3 3.3v1.6l.7 2.5.9.8 1.8.7 3.3-2.4 3.5-1.4 1.7.3.7.6 1.7.8h1.1l1.7 1.2 1.1 2.5 1.6 2.1 4.7 2.2 3.3.8.3.9.3 1.1 4.8.7 5.2-.6 3.9 1.2 4 .5 9.3-2.2 2.1.5.8.7-.3 1.1-1.7 3.5-.3.9-.1 1.1.3 1.9v.8l-.6.8-.2 1.5.2 1.3-.1 1.2-.8 1.3-1 .8-2.7 1.2-1.2.3-1.3-.1-3.6-1.8-1.3-.2-2.8.8-1.2.1-1.2-.1h-.8l-.8.3-1 .6-.6.9.3.8 1.4 1.6-7.4 2-1.9-.4-.9-.3-3.1-.3-2.5-.9-2-.3-2 .3-1.5 1.1-1.3 1.4-1.8-.1-4.5-.8-2.4-1.5-3-3.2-3.6-1.6-4-.3-2.3 1.8-1.9 2.5-1.8.6-3.1.6-1.2.5-.4 2 1.9 1.2 2.1.8.3 2.1-.3 2.3-.1 2.4-1.3 1.4-6.1 2.4-9.6 2.2-1.7 1.4-1.9 1.1-2.4.8-2.3 1.4-.2-3.5.4-3.3.6-2.6-.1-1-.3-1 .3-4.3-1.9-2.8-1.3-1.2-.9-1.9-1.6-1.9-1.6-1.5-2.2-3.7-1.4-4.3 1.6-2.7.5-3.2-.1-9.2.6-1.8.7-.5-7.4-3-4.3-5.2 1.9-.8 3.9.7 1.9-.6 1.1-1.6 1.2-.6.7-.1h1.4l1.7-1 1.5-1.6 10 2 16.1-4.6 5.6.1 2.4.6 2.4-.5 2.8 1.2z"/>
    <path id="bingol" d="m811.2 189.3-1.4 2.6-.3 1.5.8 2 .3.6.5 1.3v1l-.1 2.1 1.2 2.1 1 1 1.4 2.6.4 3-.7 2.7-3.6 4.5-1.6 5.2 1.1 3.8 1.1 1.6.6.2 1.2 1 .6 1.6.4 1.7-2.6 1.8-6.3 2.5-6.5 4-3.4 1-8.9-.4-2.6-.7-1.8-.2-5.1.8-2.9 1.5-.3 1.8-.1 2-1.3 2.2-2.1 1-6.1.2-.2-3.1-.5-2.9-2.8-4.2 2.4-7.1 1.6.3 1.7.6 1-1.8.7-2.6.3-2.4-.9-2.2-3.2-3.9-1.2-5.2 1-4.7 2.6-3.7 2.2-4.3-1.6-3.2-4.3 1.9-1.8.6-11.9 6.4.9-2.1.4-2.2-1.1-5.1.3-1.8.6-1.7.3-3.3.7-1.4 2.6-.8 3.7.2.7-.3.5-1.1.4-1.3 2.4-1 2.5.1 2.5-1.8 1.4-3 .9-.7 2.4.4 1.4.1 2.6-1.2 2-2.5 3.4 1.1 4.6.7 4.7-2 1.5-1.1 1.5-.8 1.6.9 5.1 4.8 3.8 1.8 3.2.4 2.3 2.7 2.2 3.9z"/>
    <path id="diyarbakir" d="m822.5 245.1.3 2.3-2 1.1-1.7.2-1.7.5-2.7 1.3-1.2 1.7-.4 2.4-1.1 3.6-.6 3.9.7 7.2-.4 3.7-.8 1.6-1 1.4-2.4 8-2.1 2.4-2.5 1.8-.5 1.6.5 1.9.4 2.5 1.2 2-3.4 1.5-18.2-.4-5.7 1.2-.7 1.5-2.4 3.3-4.2.3-5.8 4.5-2.6 1-5.7 4-2.3 2.1-5.1 6.6-2.4-2.7-1.8-3.4-1.8-5.3-.2-1-.5-1.9-.8-5 .4-7.1-.8-1.6-.9-.3-1-.5-1.3-1.3-1.5-.6-1 1.6-2.5-1.1-2-1.8-1.7-.6-1.6-.8-3.4-2.9-3.2-3.3-2.9-1.4-3.1-.1-4.2-.7-4.1-2.2 1.9-1.4.5-.8-.5-.9 1.2-2.7.4-1.5-.2-1.8-1.6-1.7-4.2 1.8-1.3-.9 1.7-6.1-.2-1.6-.6-1.4-.9-1 7.1-1.2 4.3 1.1 4.5.4 2.2-1 4-.6 1.5-.8 3.9-.4 4 .3 1.8-.6 1.6-1.1 1.3-2 1.1-2.2.8-2.1 2.4-.5 1.2.6 1.8 1.4.8.4 17.5-.6 6.1-.2 2.1-1 1.3-2.2.1-2 .3-1.8 2.9-1.5 5.1-.8 1.8.2 2.6.7 8.9.4 3.4-1 6.5-4 6.3-2.5 2.6-1.8 2.7 3.5 3.5 2.6.5 2.6-.6 2.7.7 1.8 1.6.5z"/>
    <path id="mus" d="m885.4 213.8-3.8 3.1-4.3 1.6-8.5-.9-1.8.6-1.7 1.2-2.1.9-2.2.2-1.1.8-.6 3.1-1.1 1-4.6-.2-1 2.5 1.7 2.6.3 2.9-2.2 1.8-3 3.5-3.7 2.1-8.9-.7-8 3-.6.9-2.9.4-2.8.9-1.6-.5-.7-1.8.6-2.7-.5-2.6-3.5-2.6-2.7-3.5-.4-1.7-.6-1.6-1.2-1-.6-.2-1.1-1.6-1.1-3.8 1.6-5.2 3.6-4.5.7-2.7-.4-3-1.4-2.6-1-1-1.2-2.1.1-2.1v-1l-.5-1.3-.3-.6-.8-2 .3-1.5 1.4-2.6 8.4-1.4 4.2 1 1.9 1.3 5.1 5 3 4.3 1.3 1.1 4.4 1.8 4.5.2 2.1-1.6 2.1-1.2 6.4-1.1 1.6-1.5 1-1.2 3.6-2.2 1.5-2.5-.3-3.1 1-3 7.2-3.6 1.9-.1 2-.3 1.1-.4 1.4 4.3 2.2 3.7 1.6 1.5 1.6 1.9.9 1.9 1.3 1.2 1.9 2.8-.3 4.3.3 1 .1 1-.6 2.6-.4 3.3.2 3.5z"/>
    <path id="bitlis" d="m893.7 268.6-1.5 4.4-.6.8-.6.9v2l.3 2.1-.2 3-1.6 2.4-2 .1-3.5-2.5-5.3-3-3.2-2.4-2.4-1-3.6-.9-3.8-1.6-3.3-2.6-3.1-3.1-3.5-1.6-4.5 1.7-4.5 1.2-5.6-.5-5.4-2-.1-1.5.2-1.5v-2.5l-.2-2.4-1.2-3.6-1.8-9-4.5-1.7.6-.9 8-3 8.9.7 3.7-2.1 3-3.5 2.2-1.8-.3-2.9-1.7-2.6 1-2.5 4.6.2 1.1-1 .6-3.1 1.1-.8 2.2-.2 2.1-.9 1.7-1.2 1.8-.6 8.5.9 4.3-1.6 3.8-3.1 2.3-1.4 2.4-.8 1.9-1.1 1.7-1.4 9.6-2.2.1 5.2 1.6 3.4 6.1 3.7 2.1 3.3-1.5 4.9-3.8 3-2.8 3-4.8 7.2-.9 2-1.1 1.9-3.3 2.3-5.6 3.2-.9.9-.5 2.9.3 1.4 1.9 4.2.2.9.1 1.7-.5 2.3.9 3.4 2.8.9z"/>
    <path id="ankara" d="m414.5 123.1-.7 5.6-.7 3.9v4.6l.4 4.1-.7 3.9-6 .7-3.9 1.6-2.3 5.8-1.3 5.8-1.6 5.7 1.3 5.8 4.2 5 1.4 2.6 2.1 9.7 4.1 8.1 1.1 3.8 5.9 3.7 2.6 2.2.9.3.7.6.9 1.3 1 .8 2.8.2 1.7.8.7.7 3.2 1.2-.3 2.3-1.8 4.4 2.1 5.7-.2 3.9-4.3 4.1-2 1-4.7-.1-4.5 1.2-4.3 2.5-4.5 1.2-1.1-2.7-1.7-2.4-1.3-2.5-1.1-2.8-.2-3.8.6-3.9.3-3.7-.3-3.6-2.8-6.5-5.1-3.7-3-1-.9-.5-2.3-1.7h-2.2l-1 1.4-.5 1.7-.5 3.5-.7 1.3-2.3-.4-3-2.3-2.5-.8-5.3 4.4-1.9 2.5-2.4 1.4-3.9-1.7-3.3 1.6-3.1 2.5-2.2-.2-1.9-1.8-1.7-.9-4.4-1.5-2.7.3-5.4 1.6-1.9-.6-7.5-6.2-2.2-1.4-2.3-1 1.3-.9 2.7-1.3 1-1.4 1.1-.4 1.1-.1 1.3-1.2 1-1.7-.4-2-1.6-1.1-1.1-1.8-.1-2.6-.3-1.2.5-2.1.3-2v-2.1l-.6-1.4-.8-1.2-.2-2.1-.7-1.4-2.6-2.3-2.6-7.2-.4-3.4 2.2-2.4-.1-1.8-.7-.5-.7-1.1-.4-1-1.8-.1-1.5-.9-1.3-2-.8-2.1-.2-1.7-.6-1.2v-2l-2.4.3-2.1-1.4-1.9.7h-3.8l-2 .5-1.7-.6-1.5.5-2.2-2.3-1.3.2-1.3.4-4.8-.6-1.4 1.2-1.5 1.1-1.4-.5-1.3-.9-3-.3-5 2.2-2.1.1-1.2-.4-.3-1.4-.6-4.1-2.2-2.8 3.2-4.3 4.3-2.5 1.6-3.5-.2-4.1.5-2.6 1.3-1.4 4.9 1.7 4.6 2.8 8.8-1 1.7 1.9 1.2.6 1.5.2 1.6.6 1.7.2 4.7-1.9 2-.2 6.5.1 4.5-1 3.6-1.7 6.1-1.5 2.2-1.5 2.2-.7 7.2 1.1 4.2-2.3 1.4-2.5 1.9-2.1.9-1.6-2-5.5.2-3.7 1.5-1.4 1.9-.8 4.1-.2 4.1.7 15.3 7.1 1.5 2.1 1.2 2.3 1.7 2 2 1.5.9.4 2.2 2 1.7 1 1.1 1.7.6 2.4 3.4 2.7 3.8-.5.3-1.7.5-1.9 1-.5 1 .1 1.7.6 1.5 1 7.1 2.3z"/>
    <path id="cankiri" d="m437 87.3 2.6 4.3-.6 2.7-1.1 2.7.3 3 1.3 2.5.4 2.4-.2 2.5.7 2.6 1.3 2.1.8 1.7.6 1.8.3 1.8-.1 1.8-.7.5-1.2 2.8-1.5 2.6-1 .5-1 .2-4.2 2.4-4.8-.5-14.4-4.6-7.1-2.3-1.5-1-1.7-.6-1-.1-1 .5-.5 1.9-.3 1.7-3.8.5-3.4-2.7-.6-2.4-1.1-1.7-1.7-1-2.2-2-.9-.4-2-1.5-1.7-2-1.2-2.3-1.5-2.1-15.3-7.1-4.1-.7-4.1.2.8-3.8.2-2 5.4-2.5 6.2-5 2.5-4.5 1.8-1.1 5.1.5 5.1-2.8 2.2-5.6 1.2 1.6.7.6 6.7.8 4.7 3.1 2 2.3 2.4.8 2-.7 5.5-3.3 4-.7 8.5-4.6 1.7-.6.8.5.6 2.7-1.6 2.2-1.4 1.5-.6 2.1 2 3.3 3 1.1 1.7 1.6 1.7 1.2 2.2.5 2.1.1z"/>
    <path id="zonguldak" d="m346.3 54.7-2.7 3.9-1.9 2.3-.9 3.6-1.7 5.6v6.2l-11.2-.3-3.2-.9-3.8-.3-12.7-1.3-8.9-4.4-2-1.9 1.7-1.6.7-1 .4-1 .2-1.1.1-1.4.1-.7.5-1.4.1-.8-.2-.4-1-.6-.2-.6.6-.9 1.1-.4 2.4-.2.3-.3.8-1.3.3-.3.5-.1 7.9-3.1 11.1-7.4 6.3-3.1 1.9-1.5.5-.3 4.9-1.7 3 3 3.1 1.4 1.1 3.6 1.9 4.8-1.1 5.9z"/>
    <path id="konya" d="m407.8 237.8-1 1.9-3 3.4-1.2 2.2-.7 5.3-1.9 2.8-1.2 3.5-.3 2.5-.8 2.3-.4 5.4 1.9 5.1.7.5.5.7.4 2.8.8 2.5 3.5 4.3 2.2 2.1 2.2.1 6.2-1.4 8.2-.6 4.1.2 4.1-1 4-1.6 3.9-.9 3.9.6.7 3.4 1.8 2.7 2.5 1 2.4 1.3 2 2.9 1.8 3.2 2 2 1.7 2.3.6 3.8-1.2 3.4-1.2 1.4-.8 1.7-.3 3v1.9l2 2.9 1.3 1 1.9 2.2 1.2 2.8-.6 2.1-1 .7-2.7.9-1.6.9-2.3 2.2-3 1.5-4.5 1.6-1.4.8-1.8 2.2-1.3-2.6-3.5-5.9-7.3-7.9-5.9-6.5-1.1-4.2.1-1-.3-3.2-2.2-.8-5.1-.2-2.4 1.5-1.5 2-2.6 3.4-5.3 2-8.1.5-7.8 1-4.9 2-8.9 9.9-6.3 8.6-4.9 6.5-1.3 4.3.3 2.3 3.2 1.5 3.1.2.8 1.8-.2 1.9-1.6 2.5-7.4 7.4-5.9 4.4.4-4.4-.8-4.3-1.1-1.6-1.7-.4-2.4-.2-2.2-.8-.8-1.8.6-2 1.3-1-.2-2-1.7-1.1-2-.8-3.5-3.3-1.5-1.1-1.5-1.4-2.3-3.3-2.6-2.8-3.7-2.5-3.3-3.2-4.4-2.8-13.4-2.8h-5.2l-2.2-.9-2.1-1.7-1.2-1.3-1.1-1.4 1.4-3.7.5-3.9-.7-2.4-1.3-2v-2.3l2.2-.7 1.7-2.1.3-3.1 2.1-3.5-.1-5.1-1.2-5.2 1.1-4.3 1.7-1.1 3.7-1.4 3.3-2.1.4-2.2-3.8-3.3-1.2-1.8-1.8-.7-3.6-3-3.1-4.2-4.1-3.3-1.5-4.9 9.2-6 4-4.2 4.5-6 .2-1.5-.2-1.3-.1-1.4.8-3.5 1.6-3.2 4-6.6.4-2.7-.9-.6-1.6-1.6.5-1.7.7-4.5 3.1.4 4.1-.7.8-1.1.3-1.9.2-2 2.3 1 2.2 1.4 7.5 6.2 1.9.6 5.4-1.6 2.7-.3 4.4 1.5 1.7.9 1.9 1.8 2.2.2 3.1-2.5 3.3-1.6 3.9 1.7 2.4-1.4 1.9-2.5 5.3-4.4 2.5.8 3 2.3 2.3.4.7-1.3.5-3.5.5-1.7 1-1.4h2.2l2.3 1.7.9.5 3 1 5.1 3.7 2.8 6.5.3 3.6-.3 3.7-.6 3.9.2 3.8 1.1 2.8 1.3 2.5 1.7 2.4 1.1 2.7z"/>
    <path id="karaman" d="m443.4 336.3-3.7 1.4-3.9.3-1.9.8-5 3.9-3.8.7-1.9 1-1.3.2-1.8-.6-4.3.4-4.2 1.6-6.6.6-2.1.6-1.9 1.2-1.7 1.5-1.7 1.3-2 .6-1.7 2-.6 2.9-1.1 1.9-1.9-.5-.5-1.2-.7-.4-1.5.6-2.4 1.5-.8.3-2 .4.1 2.1 1.1 1.3.9 1.5.5 1.9.7 1.7 1.3.6 1 1.3 1.1.9 2.8.7 2.4 1.8 1.2 2-1.3 1.7-2-.8-1.9-1-.8.2-.7.3-.7 2.1-.7 2.4-1.2 1.2-1.7.3-3.2-.2-3.1.8-2.9 1.3-3.2.1-3.4-.9-3.4.4-1-2.1-2.1-1.1-1.7-1.2-1.4-1.8-2.2-4.4-1.8-4.7 5.9-4.4 7.4-7.4 1.6-2.5.2-1.9-.8-1.8-3.1-.2-3.2-1.5-.3-2.3 1.3-4.3 4.9-6.5 6.3-8.6 8.9-9.9 4.9-2 7.8-1 8.1-.5 5.3-2 2.6-3.4 1.5-2 2.4-1.5 5.1.2 2.2.8.3 3.2-.1 1 1.1 4.2 5.9 6.5 7.3 7.9 3.5 5.9 1.3 2.6z"/>
    <path id="usak" d="m221.3 233.6-.3 2.8-.8 2.5-3.2 3.1-.7 2.6-1 2.8-1.2 1.5.1 1.8-6.5 1.5-.4 4 .4 3.9-1.7 1.5-1.9.6-4 .1-3.7-.4-2.6 2v.9l-.7 1.3-.6.1-1.3-.9-1.4.7-1.7.6-1.7-.1-1.7-1.9-1.8-.3-2.7 1.8h-2.9l-2.8-1.7-3.1-.7-2-2.1-1.5-.1-1.4-1 .5-1 1.4-1.3 1.1-1.7.7-2 .3-3.1-.3-3.3-.1-1.6-.2-1.4-1.2-1.5-1.5-.5-.2-2.4 1.5-.5 1.6-1.7.6-1.4 4-3.1 1.9-2 2.9-2.4h3l3.2 2 3.5.5 3.8-.2 6.5-1.8 3-.3 1.3-3.1.9-3.7 1.4-.8 1.4-.5h3.3l6.5 1.5 1.5.6 2.5 2.9v6.9z"/>
    <path id="gaziantep" d="m646.2 317.2-.9.2-.8-.1h-.9l-.8.6-2.3 2.9-1.8 1.8-.5.9-.4 1.6-1.1.9-.3.5-.6 2.4.8.5.6.7.4 1v1.4h-.3l-.4-.8-.5-.1-.4.5-.2 1.1.2 1 .4.9.9 1.4.3.8.1.6-.1 1.6-.3 1.9v.8l.7.7.6-.4.5.3.5.6.5.3.4-.1 1.3-.6.6-.1.6.3-.1.7-.6 1.6v1l.1.6.8.9 1.4 1.3.2.5v1.6l.3 1.3.9 1 .3.6-.6.2-.5.4-.1.8.1.9.3.6-.9.6-1.5.4-8.4 3.9-8.6 1.8-3.2 1.4-3.7 2.4-4.4-3.9-4.8-2.7-3.8-2.1-1.6 1.1-2.2-2.7-4.3-4.4-4-2.7-3.5-.7-1.6-3.7-1.9-1-1.6 1.3-.6 4.4-3.5 2.4-4.3 2-2.8 2.7-.5-.6-.8-.1-.7-.5-.4-1.4-.9-.8-4.2-1.9-3.4-3.4 1.3-2.4 1.9-1.8 3.7-4.7 2.8-5.6 2-3.1 2.4-2.7 6.3-2.9 2.4-3.4 2.6 1.6 1.5 5.9 4 1.3 4.7-5 2.9-1.5 6.5-1.1 7-2.5 3.3-.4 3.3.1 2.2-1.5.7-3-.4-1.9.1-2 5.7-1.2 5.7.1 6.1 2.3 4.1 3.6z"/>
    <path id="sanliurfa" d="m748.4 321.8.7 7.8 1.5 1.6 1.7 1.4 2.6 2.7.7 1.4-.6 5.2 4.8 8.4 2.2 1.2-3.7 2.5-1.9.9-2 .4-1.9.6-5.2 3.1-11.1 4.3-27.4 5.2-2.8.1-8.1-2.7-2.7.2-1.1.4-8.5.4-3.7-.5-3.1-1.7-7.1-7.4-2.5-1.4-9.9-3-3.5-.5-1.8.2-3.5 1.4-5 3.2-.3-.6-.1-.9.1-.8.5-.4.6-.2-.3-.6-.9-1-.3-1.3v-1.6l-.2-.5-1.4-1.3-.8-.9-.1-.6v-1l.6-1.6.1-.7-.6-.3-.6.1-1.3.6-.4.1-.5-.3-.5-.6-.5-.3-.6.4-.7-.7v-.8l.3-1.9.1-1.6-.1-.6-.3-.8-.9-1.4-.4-.9-.2-1 .2-1.1.4-.5.5.1.4.8h.3v-1.4l-.4-1-.6-.7-.8-.5.6-2.4.3-.5 1.1-.9.4-1.6.5-.9 1.8-1.8 2.3-2.9.8-.6h.9l.8.1.9-.2.8.6h.6l1.5-1.1.7.8.9.5 2.3.6.3.1v.6l.5.1.6-.7.1-1.6.4-.4 2.3.3.8-.3.3-1.5h.6l3-1.2 1.6.7 6.4-1.1 1.1-.7 3.1-3.3.7-1.2.5-.2 2.5-2.7 11.6-1.8-2.6-2-.9-1 1-.7.8.8.7.1.8-.4.6-.7.3-.3.9.6h.5l.8-.5-1.4-1.5-.4-.3.7-.8 1-.2 1.2-.1 1-.3-.6-.9.1-1.7-.6-.5-.6.1-1.5 1-.7.2.4-1 .6-.8.7-.6.8-.3.4.1 1.4.4.3-.5.1-.6-.4-.8.6-.9.3-.9v-.8l-.6-1 2.6-.8.7-.5.5-1 .3-2.2.2-.9.6-.8.9-.5 3.2-.9 2-1.5 4.1 2.2 4.2.7 3.1.1 2.9 1.4 3.2 3.3 3.4 2.9 1.6.8 1.7.6 2 1.8 2.5 1.1 1-1.6 1.5.6 1.3 1.3 1 .5.9.3.8 1.6-.4 7.1.8 5 .5 1.9.2 1 1.8 5.3 1.8 3.4 2.4 2.7z"/>
    <path id="adana" d="m566.2 259.2-2.9 2.8-1.6 4.1-2.6 11.8-1.6 4.2-.6 4.4-.1 2 .3 3.1 1.7 4.1-.2 2.7-1.7 1.7-1 .5-1.4 1.9h-4l-4.9.3-2.4 4.1-3 6.8-3.5 8.5v5.1l1.6 4.8 1.1-.1 3.4.7 1.5 1.2.4.9.6 3.7-.8 3.3-1.4 4-1.2-.4-1.1-.3-1 .7-4.3 4.9v2.7l.9 1.3-2.1 2.5-.7.6-.8.2-.5.5-1.8 2-.8.6-2 .5-4.3.2-1.9.7-.6.6-.6 1.2h-.4l-.1-.6-.4-.3-.5 1-.8.8-.5.8.3 1 .8-1.1 1.2.4.2-1.1.4.3.3.6.3-1-.3-.8.7-.4.3.3.2.7.4.3.6-.2 1-.5.7.2-3.1 1.5-1.4 1.1-.8 1.5.1.7.7-.5 2.3-2.7.7-.5.8-.2-2 2-.3.6-.4 1.1-.3.6-.3.6v1.6l-.5.3-.5.1-.7.6-.5.1-1.7.1-.7-.1-1.6-1.5-.5-.3-.7.2-.5.5-.1.5.5.1 2.2.9-2.2-.6-2.2-.2-.5.1-1.2.7-.5.7-.4.3-1.2.4-1.3 1.1h-.7l-.8-1.3-1.3-.5-13.2-8-1.4-.5-1.7-1.1-1-.4-1.5-.1v-.1l2.8-1.9 2.2-.6 1.9-1.8.2-1.8-.2-1.8-.7-3.7v-3.7l1.5-4.1-2-2-3.2.1-2.4-1.8-1.2-3.8-.2-6.7-2.5-1.9-1.9-3.7-1.7-3.9-.1-3.1.2-1.4 1.3-2.1.9-.6.7-.8.8-2.8-.4-1.8-1.3-3.3-.2-3.3 1.6-2.4 2.7.2 2.7.8 5.1-.8 6.8-6.9 9 .7 4.7 1.2 6.4 2.5 2.8-1.3-1.2-12.1 19.4-13.3 2.8-3.9 2.2-4.6 1.5-2 2.2-5.5 2.3-1.9 4-2.3 4.2-1.1 2.7 1.2 2 3.1 1.3 3.5 2.2 2.3z"/>
    <path id="kirikkale" d="m433.7 128.2.6 3.2 2.2 4.9 1.3 1.3 1.2.2 1 1.1.2 1.5.7 2-.2 2.2-1 1.7-1.4 2.8v3.5l.5 1.3.3 1.5-.2 1.4.5 1.4-8.3 8-2.4 7-3.6 5.7-8.4 6.8-5.9 10.3-4.1-8.1-2.1-9.7-1.4-2.6-4.2-5-1.3-5.8 1.6-5.7 1.3-5.8 2.3-5.8 3.9-1.6 6-.7.7-3.9-.4-4.1v-4.6l.7-3.9.7-5.6 14.4 4.6 4.8.5z"/>
    <path id="nigde" d="m483.3 255.4 3.7 10.2 3 3.2 8.5.1 1.4 4.5-.5 2.8.2 2.8 1.1 2.3.5 2.4-2.4 1.5-.2 3.4-.9 4.1-6.8 6.9-5.1.8-2.7-.8-2.7-.2-1.6 2.4.2 3.3 1.3 3.3.4 1.8-.8 2.8-.7.8-.9.6-1.3 2.1-.2 1.4.1 3.1-3.7-.9-3.6 1.6-1.6 1-1.8.6-3.9.1-1.2-2.8-1.9-2.2-1.3-1-2-2.9v-1.9l.3-3 .8-1.7 1.2-1.4 1.2-3.4-.6-3.8-1.7-2.3-2-2-1.8-3.2-2-2.9-2.4-1.3-2.5-1-1.8-2.7-.7-3.4 17.2-25.7 3 .5 4.4-1.4 3.1-.1 1.4.8 2.2 2.2 2.7.7 5.4-2.1z"/>
    <path id="aksaray" d="m447.9 218.9-.6 2.7 1.7 6-.8 3.3-1.8 3.1.7 3.3 2.4 1.6 2.6.8 2.3-.5 1.1.4.4 3-1.6 3.4.1 3.2.9.9 2.1 1.7 1.8 1.8 1.9 1.2-17.2 25.7-3.9-.6-3.9.9-4 1.6-4.1 1-4.1-.2-8.2.6-6.2 1.4-2.2-.1-2.2-2.1-3.5-4.3-.8-2.5-.4-2.8-.5-.7-.7-.5-1.9-5.1.4-5.4.8-2.3.3-2.5 1.2-3.5 1.9-2.8.7-5.3 1.2-2.2 3-3.4 1-1.9 4.5-1.2 4.3-2.5 4.5-1.2 4.7.1 2-1 4.3-4.1.2-3.9-2.1-5.7 1.8-4.4.7 1 2.1.4 1.2-.1 2 1 .8 2.6 2 1.9 2.6-1.6 1.1-.3 2.3.3 1.1-.2z"/>
    <path id="yozgat" d="m514.3 133.4 3.6 4.1 4.1 2.9 4.9-.4 4.1.8 2.4-.2 2.4-.5 2.2-1 2.2-.6 2.2 2.2-.4 3.8-.1 2.6 1 2 1 .9.6 1.5 1.5 5 2.5 4.5 1.8 1 .5 1.4.2 1.6-1.6 5.6-3.8 3.8-4.5 3.5-1.8 2.2-1.6 2.5-1.2 2.5-1.7 2.2-2.4 1.8-1.9 2.3-4.4 6.1-16.9 11-2.3.8-5.9 3.8-11.8-1.9-.7-1.7-.8-1.6-.4-1.4-.2-1.6.4-1.6-1.1-2-4.2-2.6-.7-2.7-1-2-1.7-.9-1.3-1.6-.5-1.3-.2-1.5-.4-.8-1.5-.7-.9-.2-1.3-3.2-2.3-1.9-2.6-.5-2.3-1.5-7.2-8.9-.6-1.4-.5-1.5-1-1.5h-4.1l-2.4-.8-2.6-3-2.7-2.6h-2.9l-1-1-1.1-1-.5-1.4.2-1.4-.3-1.5-.5-1.3 3-1.4 8.2-1 4.9-2.3 5.1-1.7 8 1.5 3.1-1.2 2.1.2 4.2-.3 7.8-3.8 4.4 1.3 2.4-.3 4.1-2.4 1.4-1.9.1-1.3.6-1.5.2-1.2-.7-.8.5-3 5-.4 2.1-.8.5.2.4 1.4 1 .7 2.3.2 2.7-.2 2.6.8z"/>
    <path id="gumushane" d="m739.7 107.9 1.8 10.1-.4 10.1-1.7 3.9-.6 2.2-.2 2.3 1.1 4.6 1.9 4.2-2 3-2.3 2.4-5.8 1.4-2.8 1.4-3 .3-3.1-.2-3 .3-3.2-.3-3.1-1.6-3.1-1-1-.9-.8-1.1-1.9-1.2-2-.8-5.6-3.4-1.6-.4-1.6-.2-1.5-.7-1.4-.9.5-2.3-1.5-1.8-.4-2.4.2-2.5-.2-2.3v-2.2l1.2-1.4 5.2-3 1.6-1.2.3-2.5-1.2-.4-1.4-1.5-1.5-1.2-6.1-1.5-1.5-1.7-.1-2.5.4-3.1.1-.5.5-.8 1.6-1.6 1-1.8-.7-2.2.7-1.7 1.6-1.1 1.5-1.3 1.3-.4 1-.5.2-1 .4-.8 6.3-.8 1 .8 1.1.1 1-.9.9-1.2 2.2 1.2.8 4.1 3.5 3.6 12.1 5 3.2.4 1-.3.8-.9.6-2.8 1.7-1.2 3.5 2.4 2.5 4.2z"/>
    <path id="bayburt" d="m773.9 109.2 1.7 4.2 1.5 9.3 1.3 4.2 3.2 1.8 3.4.8 1.5.6 3.5.3.1 1.4-1.2 2.5-1.5 1.8-6.5 2.3-2.9 1.4-2.2 2.2-2.3 1.8-1.9.3-8.5-1-8.6-1.8-2.4 1-2.1 1.9-2.6.3-3-.2-2.8 1-1.9-4.2-1.1-4.6.2-2.3.6-2.2 1.7-3.9.4-10.1-1.8-10.1h1.1l.8-1-.3-1.6 1-.9 1.6.6 3.2 3.6 2.1 1.3 4.5.1 4.3 1.4 2.3-.1 2.5-.8 2.6-.5 5.4.1 2.1-.7 1-.2z"/>
    <path id="kars" d="m939.5 138.8-6.9 2.4-6.5 1-2.7 1.3v2.6l-2 2.3-2.8-1.2-2.4.5-2.4-.6-5.6-.1-16.1 4.6-10-2-1.6-2.5-1.2-2.7-1.4-2.1-2-.9-1.1-.3-.8-.7-.7-1.4-.9-1.2-1.5-1.1-1.7-.6-4.5-.8-1.3-1.4-1.1-1.8-1.8-2.2 1.6-3.7 7.6-2.6 3.3-1.9 1.7-1.4 1.8-1.2 2.2-.9 2-1.3-1.2-6.9.8-2.3.4-2.4 6-1.2 6.2-.6 1-5 .8-8.2 1.2-5.3 6.2-3.3 17-7.3 5.3-3 3.4-1.1-.3 1.6.5 2.2.8 2 1 .9 2.2.3 2.3 1.2 2 1.7 1.7 2 .6 1.4.2 1.3.1 1.4.3 1.6.5 1.3 2.2 3.5.5 1.3.1 1.2.3 4.7-.1.6-1.1 1.9-.3.4.4 1.6-2.2 2.6-.7 1.4v1.7l-.3-.3-.8-.2.4.9-1.2.2-1.2.8-1.7 2.1.2.9 1.1 1.3 2.1 1.8v.4l-.8 2.8-.5.8-.3 1.1.5 1.1 1.4 1.3 2.3 3 .8 1.9-.9.8.5 1.2 1.7 2 .3.7-.5.9-2.4.5-.7.7.7 2z"/>
    <path id="mardin" d="m843.1 299.6 3.1 8.2 1.5 5.7-.6 4.4-3.9 1.9-5 2.7-2.1 2.4.8 2.7 6.1 1.9 3.2 2.8 1.1 4.1-21.8 5.1-14.5.7-1.1-.3-2.3-1-12.5-2.5-9.7 1.5-2.6 1-7 3.9-2.4.7h-1.2l-1.1.3-1.1.4-1.1.6-6.9 4.7-2.2-1.2-4.8-8.4.6-5.2-.7-1.4-2.6-2.7-1.7-1.4-1.5-1.6-.7-7.8 5.1-6.6 2.3-2.1 5.7-4 2.6-1 5.8-4.5 4.2-.3 2.4-3.3.7-1.5 5.7-1.2 18.2.4 3.4-1.5 1.3-.1 1 .5 3.6 4.7 3.7 7.6 5.6 3.5 8-1.6 5.8-4.3 9.6-6.9z"/>
    <path id="batman" d="m835.8 266-2.3 2.7-1.1 3.6-2.6 3-6 1.7-1.7 3 .4 4.3 5.6 5.2 9.5 3.9 5.5 6.2-9.6 6.9-5.8 4.3-8 1.6-5.6-3.5-3.7-7.6-3.6-4.7-1-.5-1.3.1-1.2-2-.4-2.5-.5-1.9.5-1.6 2.5-1.8 2.1-2.4 2.4-8 1-1.4.8-1.6.4-3.7-.7-7.2.6-3.9 1.1-3.6.4-2.4 1.2-1.7 2.7-1.3 1.7-.5 1.7-.2 2-1.1-.3-2.3 2.8-.9 2.9-.4 4.5 1.7 1.8 9 1.2 3.6.2 2.4v2.5l-.2 1.5.1 1.5z"/>
    <path id="siirt" d="m893.7 268.6 4.1-.2 4.2.8 3.6 1.4.5 4.7-.1 2.7.3 2.7-.2 2.8-.7 2.7-.2 3.8-.7 1.6-.6 1.9 2.1 4.9-.6 3.7-3.2 3.3-8.8-.9-11-1.6-10.6-2.7-6.9-.3-4 4.1-10.4-.8-7.4-3.6-5.5-6.2-9.5-3.9-5.6-5.2-.4-4.3 1.7-3 6-1.7 2.6-3 1.1-3.6 2.3-2.7 5.4 2 5.6.5 4.5-1.2 4.5-1.7 3.5 1.6 3.1 3.1 3.3 2.6 3.8 1.6 3.6.9 2.4 1 3.2 2.4 5.3 3 3.5 2.5 2-.1 1.6-2.4.2-3-.3-2.1v-2l.6-.9.6-.8 1.5-4.4z"/>
    <path id="sirnak" d="m925 298.3-.4 6-1.1 3.8.9 3.5 1.7 4.4-.4 5.7-1.3 3.5-.7 1.3-1.4-1-.6-.2-1 .2-.4.2-.5.5-.5.1-.8-.2-6.8-3.7-.9-.3-1.6.2-2.1.5-2 .9-1.4 1-2.2.8-2.1-.3-4.3-1.5-.4-.3-.3-1.1-.4-.4h-1.1l-2.6 1-.3.3-.3.5-.2.9-.2.5-6.6 9.6-.8 2.2-.8.3-4.5.8-3 1-2.3.3v-1.9l-.2-.9-.4-.4-.6-.9 1-3.6-.4-.9-.3-.1-1.8-1.5-.7-1.3-.3-.1-1 .8-1.6-.8-.7-.1v-1.7l-.6-.7-1 .7-.7.5-2.6 3.5-4 3.7-2.3 1.4-5.8 1.4-1.1-4.1-3.2-2.8-6.1-1.9-.8-2.7 2.1-2.4 5-2.7 3.9-1.9.6-4.4-1.5-5.7-3.1-8.2 7.4 3.6 10.4.8 4-4.1 6.9.3 10.6 2.7 11 1.6 8.8.9 3.2-3.3.6-3.7 4.2-2.3 4.4.6 4 1.7 1.3.3 2.5-.1 2.6-.3z"/>
    <path id="tunceli" d="m777.3 176.9-2 2.5-2.6 1.2-1.4-.1-2.4-.4-.9.7-1.4 3-2.5 1.8-2.5-.1-2.4 1-.4 1.3-.5 1.1-.7.3-3.7-.2-2.6.8-.7 1.4-.3 3.3-.6 1.7-.3 1.8 1.1 5.1-.4 2.2-.9 2.1-2.8.2-2.6.6-1 .7-.7 1.1.6 2.6.2 2.3-.7 3.2-1.4 2.8-3.2 3.6-4.9 1.9-5 .3-1.9-.1-1.8.4-1.3 1.7-1.6 1.1-1.3-.4-1.3-.6-1.3.3-1.2-1.5-1-.7-2.3-.7-2.3-1.6-2.4-1.1-2.1-.2-2.1-.7-1.7-.1-1.6-1h-.5l-1.6.3-2.2-1-4.1.3-4.1 1.1h-1.5l-2.2-2.2v-1.9l.8-1.7-.1-2-2-3-.4-4.2-.9-.7-.2-1.6.2-1.6 1.8-1 .8-3.8 1.2-.7 1.4-.3 1.4-.9-.7-1.3-.7-2 .9-2.2 3.1-1.1.6-.3.6-1.2.7-1.1 1.5.1 1.3-.7 1-1.8 1.4-1.1 5.2-2 2.7-.5 2.7.5 2.2-.6 2.1-1.1 4 .3 4 .9h4.1l8-1.2 3.6-1.2 2.4-3 1.9-.6 2.8 1.6 4.1 1 4.8-1.6 1.1-.2 2-.9 1.7-.6.1-.2.6.1 2 .7 1 .6 7.7.2 4.3.7 4.2.1z"/>
    <path id="hakkari" d="m967.6 287-.1.5.9 1.4 1.8.3 3.4-.4.6.2 1.9.9.5.4.3.6.5 1.6.6.7.4.2.7-.2.4.3v.3l-.2 1.5.4.7.7.1.9-.3.6-.4 1.4-.2 1.5.7 1.3 1.1 1.9 2.4.1.6-.5.9-1.8 1.4-.4.6-.3 2 1.1 1.2 1.1.9.3 1.1-.5 1.3-.4 1.7-.1 1.6.5 2.5-.7 1.9.4 1.1.7.4 1.9.2.8.6.7 1.9.5.5 1.9-.3.5.6.3 1 .4.9 3 1.9 1.2 1.4-.1 2.1-.7.8-.7.4-.6.6-.4 1.2.2 1.3.5 1.1.3 1.1-.3 1.3-.7-1.2-1-.5-5.5-.8-1 .1-1.6.8-2.1 1.4-1.8 1.8-1.3 1.6-1.3 1.1-1.4.7-4.4 1.5-.4.7-.2 1-.8 1.4-.5 1.1-.5.5-.6.1-2.2-.6-.5-.4-.3-.7-2.1-4.7-.4-1.4v-1.4l.5-1.3.9-1.1.6-.4 1.1-.4.5-.8v-1.4l-.3-1.5-.4-1.5-.6-1.1-.9-.9-1.2-.7-5-2.1-2.7-.5-2.4.4-1.9 1.6-1.5 2.3-1.6 1.8-2.8.5-.9 1-.7.2-.4-.3-1.1-1.1-.5-.3-1.3-.4-1.3-.1-5.4.4-1.2-.2-1.3-.5-1.4-1-.7-.1-.6.1-1.3.5-.7.1-.9-.3-2.4-2-2.1-1.1-.7-.6.7-1.3 1.3-3.5.4-5.7-1.7-4.4-.9-3.5 1.1-3.8.4-6 7-.1 6.9-1.1 1.5-.8 1.5-.6 2.2.3 2.1.9h3.4l3.3-.7 2.9-1.7 1.3-3.6 2.1-3.7 3.8-.8 4.6.6z"/>
    <path id="van" d="m959.4 191.2.2.7.3 1.4.6 1.3-.1 1v.6l.2.6.6 1.3.1.6-.4 1.2.1.6 1.3 1 2.3 1.3 2.1 1.4.4 1.6-1 2.1-.3 1 .5 2.7-.5.8-.9.7-.7 1.3.4.9.3 1 .3.5.8.8v1.2l.9 2.5.8 1 .8.8 2.8 1.3.2 2-1.4 4.9-.2 1.3.1.8.2.8.3 1.2-.2.5-.5.5-.1.4.6.3 1 .3.7.7.4 1.1v1.4l-.2 2.7.4 3.4v1.1l-.7 2.7v.8l.2 1.7-.2 1.7.1.6 1.3.7 2.6.4 1.7-1 .7-.1.8.3.7.6.6.9.4 1.1.1 1-1.2 1.7-1.9 1.5-1.5 1.7.3 3.2-.2 1.3-.3 1.3-.4.9-.4.6-.9.4-.4.3-.1.6.4 1.3-.3.4-1 .5-.6.5-.5.9-.5 1.3-.4 1.1-1.3 1.4-.9 1.8-.3.8-.1.9.2.9.1.8-1 1.4-.1.3-4.6-.6-3.8.8-2.1 3.7-1.3 3.6-2.9 1.7-3.3.7h-3.4l-2.1-.9-2.2-.3-1.5.6-1.5.8-6.9 1.1-7 .1-2.6.3-2.5.1-1.3-.3-4-1.7-4.4-.6-4.2 2.3-2.1-4.9.6-1.9.7-1.6.2-3.8.7-2.7.2-2.8-.3-2.7.1-2.7-.5-4.7-3.6-1.4-4.2-.8-4.1.2-2.8-.9-.9-3.4.5-2.3-.1-1.7-.2-.9-1.9-4.2-.3-1.4.5-2.9.9-.9 5.6-3.2 3.3-2.3 1.1-1.9.9-2 4.8-7.2 2.8-3 3.8-3 1.5-4.9-2.1-3.3-6.1-3.7-1.6-3.4-.1-5.2 6.1-2.4 1.3-1.4.1-2.4.3-2.3-.3-2.1-2.1-.8-1.9-1.2.4-2 1.2-.5 3.1-.6 1.8-.6 1.9-2.5 2.3-1.8 4 .3 3.6 1.6 3 3.2 2.4 1.5 4.5.8 1.8.1 1.3-1.4 1.5-1.1 2-.3 2 .3 2.5.9 3.1.3.9.3 1.9.4 7.4-2z"/>
    <path id="ardahan" d="m927.8 70.3-3.4 1.1-5.3 3-17 7.3-6.2 3.3-1.2 5.3-.8 8.2-1 5-6.2.6-6 1.2-1.6-2.8-2.1-2.1-1.5-2.3-1.1-2.7-1.5-1.9-1.9-1.3-2.7-4.1-1.1-5.3 3.3-6.5 4.5-5 4.4-2.2 1.4-4.7-1.5-4.8-1-2.5-.4-.7-.6-1.7-.4-3-.7-4h.6l1.1-.7 1.6-2.4 1.1-1.2.5-1.1.5-2.9.5-1.2 1.1-.8 1.3-.4 2.6-.2 7.3.6 1 .5-.4.6-.3 1.4-.2.7-.4.5-1 .8-.5.7 1.4.8 1 1.1.9.3 1.3-1.4.7-.5.4.5.3.8.4.8.4.3 1.5.5.8.9.5.2.4.4 1.6 3 .7.8 3.8 2.6 2.6 2.2 1.6.8 1.5.2.1.4-.7 1-.8.7-2.8 1.4 1.4.5 1.1-.2 1.1.2 1 1.2 1.3 3 .7.6 4.8-1.4 1.5-.1 1.7.5 1.4.8 1.4 1.3.8 1.7-.6 1.8z"/>
    <path id="igdir" d="m980.8 170.6-.8-.7-2.1-.5-9.3 2.2-4-.5-3.9-1.2-5.2.6-4.8-.7-.3-1.1-.3-.9-3.3-.8-4.7-2.2-1.6-2.1-1.1-2.5-1.7-1.2h-1.1l-1.7-.8-.7-.6-1.7-.3-3.5 1.4-3.3 2.4-1.8-.7-.9-.8-.7-2.5v-1.6l.3-3.3-1.2-3.8 2-2.3v-2.6l2.7-1.3 6.5-1 6.9-2.4 2.4 1.3 4.7 1.4 5.7 3.1 6.3 1.1.9-.3 1.8-1.3 1.1-.3.5.2.7.6.4.2.5-.1 1.1-.3 1.5-.2 3.1-.9h1.8l1.9.6 7.2 4.3 3.1 2.6 1.3 1.5.6 1 .4 1.6.5.5.7.6.2.6v.8l.2.4.7-.4 1.9 2.2 1 .5h.8l.5.3.3.5 3.2 4.2 1.3 2.3.6 2.5.6.9-4.2-3.1-1-.9-3.2-1.4-.7-.9-1.4-2.1-.8-.6-1.3.4-5.5 4.6-.2.8.2 2.2-.1.8z"/>
    <path id="kilis" d="m619.2 367.7-3.9 2.6h-2.2l-8.5-1.6-1.1.1-3.4.9-.9-.2-.9-.2-.8-.1-1 .4-.8.9-.4.6-.5.1-1.1-.5-.9-.9-.2-.8.4-2.1v-1.3l-.4-.9-2.4-2.2-1-.6-1.1-.4-1-.2-3.2-.2-9.6-3.4 2.8-2.7 4.3-2 3.5-2.4.6-4.4 1.6-1.3 1.9 1 1.6 3.7 3.5.7 4 2.7 4.3 4.4 2.2 2.7 1.6-1.1 3.8 2.1 4.8 2.7 4.4 3.9z"/>
    <path id="osmaniye" d="m554.5 302.5-.1 5.2-1.1 1.9-1.5 1.6-.4 2 .6 1.9.7.7.6.8.2 4.4 2.2 2.6.5-.1.3-.6.5-.3 1.3-.5.9 1 1.7-.3 2-.8 5.7-1.1 2 .5 1.8 1.3 2.8 2.6 2.3 3.4-2.4 2.7-2 3.1-2.8 5.6-3.7 4.7-1.9 1.8-1.3 2.4-2.6.3h-2.6l-2-1.3-1.7-1.8-2.4-.8-2.4.7-2.2-.1-2.1-.6-2.3.4 1.4-4 .8-3.3-.6-3.7-.4-.9-1.5-1.2-3.4-.7-1.1.1-1.6-4.8v-5.1l3.5-8.5 3-6.8 2.4-4.1 4.9-.3h4z"/>
    <path id="yalova" d="M197.3 99v6.1l-.4 2.7-3.3-.7-3.3 3.5-3.3.7-8-3.5-1.6.2-3.6-.9.1 7.4-.5.2-2.8-.6-4.6-2.9-2.8-.7.9-2.1 1.8-1.2 3.7-1.4 1.6-1 2.2-2.3.8-.4 15.4-1.4 2.2-.8 2.1-1.2 1.1-.8.4-.1.4.4.4.6.5.5.6-.3z"/>
    <path id="duzce" d="m320.9 74.8-.9 6-2.6 3-4.8 1.1-6.7 1.2-2.6 1.9-.2 3.6-1.9 5.1-4 3-5 .6-5.9-2.5-8.5.2-4.3-1.5 1.2-2.1-1.1-1.6-.5-1.8.7-2-.1-2.1-.9-1.8-.4-2.1 1.8-4.1 3-2.8-.1-1.5-.3-2 .1-.7 7-.1 1.3-.8.5-.1h.7l1.1.3.5.1 2.2-.4 1.1.4.4-.1.2-.6.3-.3 2.1-.8 1.8-1.1 1.2-1.2 2 1.9 8.9 4.4 12.7 1.3z"/>
    <path id="karabuk" d="m387.1 71.2-2.2 5.6-5.1 2.8-5.1-.5-1.8 1.1-2.5 4.5-6.2 5-5.4 2.5.2-1.8-2-3.6-6-3-2.4-1.5-1.5-.3-1.2-.8v-1.9l.2-1.9-4.4-1-2.6-.1v-6.2l1.7-5.6.9-3.6 1.9-2.3 2.7-3.9 5.7.3 5.5-1.4 6.3-5.4 2.3-5 3-.9 4.9-4.7 1.8 2 3.1-.5 3.9-1.3 3.7 2.8 1.5 6.2 1.5 3.4-5.1 1.1-2.8 2.7-2.3 3.2-.5 2.4 1 7.4 2.9.5 2.8 1.2 1.1 1.6.5.9z"/>
    <path id="bartin" d="m374 37.6-4.9 4.7-3 .9-2.3 5-6.3 5.4L352 55l-5.7-.3 1.1-5.9-1.9-4.8-1.1-3.6-3.1-1.4-3-3 1.5-.9.8-1.7 3.4-3.9.3-.4.8-1.5 1.7-.5 2.9-.2.1-.4 1-.5.2-.8h.5l.7.8.9-.5 1.2-1.3.7-.6 3.6-1.9.6-.5.7-.3.8-.1.8.4.6-1.1 1.2-.9 1.4-.3 1.2.6.9-.1 3.1-1.2.8-.4.8.1 1.5-.1.5 4.2 1.5 3.1 1.9 5.1-3.4 2.4.5 5z"/>
</svg>
